# XSI Wavefront OBJ Export v3.0
# File Created: Sat Dec 03 20:42:09 2016
# XSI Version: 6.02.2007.0613
mtllib Road_Barrel.mtl

o Road_Barrel
# Hierarchy (from self to top father)
g Road_Barrel

#begin 54 vertices
v 0.000000 1.385950 -0.020035
v -0.127008 1.317336 0.020035
v 0.000000 1.362368 -0.020035
v -0.127008 1.317336 -0.020035
v 0.000000 1.385950 0.020035
v 0.000000 1.362368 0.020035
v -0.202596 1.385950 -0.020035
v -0.261562 1.317767 0.020035
v -0.202596 1.385950 0.020035
v -0.261562 1.317767 -0.020035
v -0.106655 1.362368 0.020035
v -0.106655 1.362368 -0.020035
v 0.000000 0.000000 0.000000
v -0.611206 0.000000 0.000000
v 0.322105 1.316525 0.000000
v -0.322105 1.316525 0.000000
v 0.227763 1.316525 0.227763
v 0.260794 0.045667 0.260794
v 0.000000 1.316525 0.322105
v 0.000000 0.045667 0.368819
v -0.227763 1.316525 0.227763
v -0.260794 0.045667 0.260794
v -0.580535 0.041635 0.000000
v -0.368819 0.045667 0.000000
v -0.260794 0.045667 -0.260794
v -0.432188 0.000000 0.432188
v 0.000000 0.000000 0.611206
v 0.432188 0.000000 0.432188
v -0.227763 1.316525 -0.227763
v 0.611206 0.000000 0.000000
v 0.580535 0.041635 0.000000
v 0.410500 0.041635 0.410500
v 0.000000 0.041635 0.580535
v -0.410500 0.041635 0.410500
v 0.000000 0.041635 -0.580535
v -0.410500 0.041635 -0.410500
v -0.432188 0.000000 -0.432188
v 0.000000 0.000000 -0.611206
v 0.227763 1.316525 -0.227763
v 0.000000 0.045667 -0.368819
v 0.000000 1.333385 0.000000
v 0.260794 0.045667 -0.260794
v 0.368819 0.045667 0.000000
v 0.410500 0.041635 -0.410500
v 0.432188 0.000000 -0.432188
v 0.000000 1.316525 -0.322105
v 0.127008 1.317336 0.020035
v 0.106655 1.362368 0.020035
v 0.202596 1.385950 0.020035
v 0.261562 1.317767 0.020035
v 0.261562 1.317767 -0.020035
v 0.202596 1.385950 -0.020035
v 0.106655 1.362368 -0.020035
v 0.127008 1.317336 -0.020035
#end 54 vertices

#begin 208 normals
vn 0.000000 0.000000 1.000000
vn 0.000000 0.000000 1.000000
vn 0.000000 0.000000 1.000000
vn 0.000000 0.000000 1.000000
vn -0.756382 0.654130 0.000000
vn -0.756382 0.654130 0.000000
vn -0.415855 0.909431 0.000000
vn -0.415855 0.909431 0.000000
vn 0.000000 -0.000000 -1.000000
vn 0.000000 0.000000 -1.000000
vn 0.000000 0.000000 -1.000000
vn 0.000000 -0.000000 -1.000000
vn 0.000000 -1.000000 0.000000
vn 0.000000 -1.000000 0.000000
vn 0.000000 -1.000000 0.000000
vn 0.000000 -1.000000 0.000000
vn 0.000000 0.000000 1.000000
vn 0.000000 0.000000 1.000000
vn 0.000000 0.000000 1.000000
vn 0.000000 0.000000 1.000000
vn -0.415855 0.909431 0.000000
vn -0.415855 0.909431 0.000000
vn 0.000000 1.000000 0.000000
vn 0.000000 1.000000 0.000000
vn 0.000000 0.000000 -1.000000
vn 0.000000 0.000000 -1.000000
vn 0.000000 0.000000 -1.000000
vn 0.000000 0.000000 -1.000000
vn 0.911248 -0.411859 0.000000
vn 0.911248 -0.411859 0.000000
vn 0.911248 -0.411859 0.000000
vn 0.911248 -0.411859 0.000000
vn 0.000000 0.894060 0.447946
vn -0.316746 0.894060 0.316746
vn -0.569312 0.593099 0.569312
vn 0.000000 0.593099 0.805129
vn 0.036962 0.998633 0.036962
vn 0.052273 0.998633 0.000000
vn 0.000000 1.000000 0.000000
vn 0.999325 0.036733 0.000000
vn 0.706630 0.036733 0.706630
vn 0.706630 0.036733 0.706630
vn 0.999325 0.036733 0.000000
vn 0.316746 0.894060 0.316746
vn 0.000000 0.894060 0.447946
vn 0.000000 0.593099 0.805129
vn 0.569312 0.593099 0.569312
vn 0.000000 0.998633 0.052273
vn 0.036962 0.998633 0.036962
vn 0.000000 1.000000 0.000000
vn 0.706630 0.036733 0.706630
vn 0.000000 0.036733 0.999325
vn 0.000000 0.036733 0.999325
vn 0.706630 0.036733 0.706630
vn 0.447946 0.894060 0.000000
vn 0.316746 0.894060 0.316746
vn 0.569312 0.593099 0.569312
vn 0.805129 0.593099 0.000000
vn -0.036962 0.998633 0.036962
vn 0.000000 0.998633 0.052273
vn 0.000000 1.000000 0.000000
vn 0.000000 0.036733 0.999325
vn -0.706630 0.036733 0.706630
vn -0.706630 0.036733 0.706630
vn 0.000000 0.036733 0.999325
vn -0.013462 0.999819 0.013462
vn -0.019038 0.999819 0.000000
vn -0.447946 0.894060 0.000000
vn -0.316746 0.894060 0.316746
vn -0.052273 0.998633 0.000000
vn -0.036962 0.998633 0.036962
vn 0.000000 1.000000 0.000000
vn -0.706630 0.036733 0.706630
vn -0.999325 0.036733 0.000000
vn -0.999325 0.036733 0.000000
vn -0.706630 0.036733 0.706630
vn 0.000000 0.999819 0.019038
vn -0.013462 0.999819 0.013462
vn -0.316746 0.894060 0.316746
vn 0.000000 0.894060 0.447946
vn 0.013462 0.999819 0.013462
vn 0.000000 0.999819 0.019038
vn 0.000000 0.894060 0.447946
vn 0.316746 0.894060 0.316746
vn 0.019038 0.999819 0.000000
vn 0.013462 0.999819 0.013462
vn 0.316746 0.894060 0.316746
vn 0.447946 0.894060 0.000000
vn 0.000000 -1.000000 0.000000
vn 0.000000 -1.000000 0.000000
vn 0.000000 -1.000000 0.000000
vn 0.000000 -1.000000 0.000000
vn 0.000000 -1.000000 0.000000
vn 0.000000 -1.000000 0.000000
vn -0.316746 0.894060 0.316746
vn -0.447946 0.894060 0.000000
vn -0.805129 0.593099 0.000000
vn -0.569312 0.593099 0.569312
vn 0.000000 -1.000000 0.000000
vn 0.000000 -1.000000 0.000000
vn 0.000000 -1.000000 0.000000
vn 0.000000 -1.000000 0.000000
vn 0.000000 -1.000000 0.000000
vn 0.000000 -1.000000 0.000000
vn 0.000000 0.894060 -0.447946
vn -0.316746 0.894060 -0.316746
vn -0.569312 0.593099 -0.569312
vn 0.000000 0.593099 -0.805129
vn 0.036962 0.998633 -0.036962
vn 0.052273 0.998633 0.000000
vn 0.000000 1.000000 0.000000
vn 0.999325 0.036733 0.000000
vn 0.706630 0.036733 -0.706630
vn 0.706630 0.036733 -0.706630
vn 0.999325 0.036733 0.000000
vn 0.316746 0.894060 -0.316746
vn 0.000000 0.894060 -0.447946
vn 0.000000 0.593099 -0.805129
vn 0.569312 0.593099 -0.569312
vn 0.000000 0.998633 -0.052273
vn 0.036962 0.998633 -0.036962
vn 0.000000 1.000000 0.000000
vn 0.706630 0.036733 -0.706630
vn 0.000000 0.036733 -0.999325
vn 0.000000 0.036733 -0.999325
vn 0.706630 0.036733 -0.706630
vn 0.447946 0.894060 0.000000
vn 0.316746 0.894060 -0.316746
vn 0.569312 0.593099 -0.569312
vn 0.805129 0.593099 0.000000
vn -0.036962 0.998633 -0.036962
vn 0.000000 0.998633 -0.052273
vn 0.000000 1.000000 0.000000
vn 0.000000 0.036733 -0.999325
vn -0.706630 0.036733 -0.706630
vn -0.706630 0.036733 -0.706630
vn 0.000000 0.036733 -0.999325
vn -0.013462 0.999819 -0.013462
vn -0.019038 0.999819 0.000000
vn -0.447946 0.894060 0.000000
vn -0.316746 0.894060 -0.316746
vn -0.052273 0.998633 0.000000
vn -0.036962 0.998633 -0.036962
vn 0.000000 1.000000 0.000000
vn -0.706630 0.036733 -0.706630
vn -0.999325 0.036733 0.000000
vn -0.999325 0.036733 0.000000
vn -0.706630 0.036733 -0.706630
vn 0.000000 0.999819 -0.019038
vn -0.013462 0.999819 -0.013462
vn -0.316746 0.894060 -0.316746
vn 0.000000 0.894060 -0.447946
vn 0.013462 0.999819 -0.013462
vn 0.000000 0.999819 -0.019038
vn 0.000000 0.894060 -0.447946
vn 0.316746 0.894060 -0.316746
vn 0.019038 0.999819 0.000000
vn 0.013462 0.999819 -0.013462
vn 0.316746 0.894060 -0.316746
vn 0.447946 0.894060 0.000000
vn 0.000000 -1.000000 0.000000
vn 0.000000 -1.000000 0.000000
vn 0.000000 -1.000000 0.000000
vn 0.000000 -1.000000 0.000000
vn 0.000000 -1.000000 0.000000
vn 0.000000 -1.000000 0.000000
vn -0.316746 0.894060 -0.316746
vn -0.447946 0.894060 0.000000
vn -0.805129 0.593099 0.000000
vn -0.569312 0.593099 -0.569312
vn 0.000000 -1.000000 0.000000
vn 0.000000 -1.000000 0.000000
vn 0.000000 -1.000000 0.000000
vn 0.000000 -1.000000 0.000000
vn 0.000000 -1.000000 0.000000
vn 0.000000 -1.000000 0.000000
vn 0.000000 0.000000 1.000000
vn 0.000000 0.000000 1.000000
vn 0.000000 0.000000 1.000000
vn 0.000000 0.000000 1.000000
vn 0.756382 0.654130 0.000000
vn 0.756382 0.654130 0.000000
vn 0.415855 0.909431 0.000000
vn 0.415855 0.909431 0.000000
vn 0.000000 -0.000000 -1.000000
vn 0.000000 0.000000 -1.000000
vn 0.000000 0.000000 -1.000000
vn 0.000000 -0.000000 -1.000000
vn 0.000000 -1.000000 0.000000
vn 0.000000 -1.000000 0.000000
vn 0.000000 -1.000000 0.000000
vn 0.000000 -1.000000 0.000000
vn 0.000000 0.000000 1.000000
vn 0.000000 0.000000 1.000000
vn 0.000000 0.000000 1.000000
vn 0.000000 0.000000 1.000000
vn 0.415855 0.909431 0.000000
vn 0.415855 0.909431 0.000000
vn 0.000000 1.000000 0.000000
vn 0.000000 1.000000 0.000000
vn 0.000000 0.000000 -1.000000
vn 0.000000 0.000000 -1.000000
vn 0.000000 0.000000 -1.000000
vn 0.000000 0.000000 -1.000000
vn -0.911248 -0.411859 0.000000
vn -0.911248 -0.411859 0.000000
vn -0.911248 -0.411859 0.000000
vn -0.911248 -0.411859 0.000000
#end 208 vertex normals

#begin 208 texture vertices
vt 0.995223 0.549183 0.000000
vt 0.987228 0.577088 0.000000
vt 0.935295 0.551194 0.000000
vt 0.934793 0.498248 0.000000
vt 0.911258 0.498472 0.000000
vt 0.934793 0.498248 0.000000
vt 0.935295 0.551194 0.000000
vt 0.911760 0.551417 0.000000
vt 0.911258 0.498472 0.000000
vt 0.911760 0.551417 0.000000
vt 0.860328 0.578292 0.000000
vt 0.851805 0.550544 0.000000
vt 0.874911 0.608123 0.000000
vt 0.898445 0.607899 0.000000
vt 0.899040 0.670543 0.000000
vt 0.875506 0.670766 0.000000
vt 0.935295 0.551194 0.000000
vt 0.949681 0.607413 0.000000
vt 0.950276 0.670056 0.000000
vt 0.936425 0.670188 0.000000
vt 0.911760 0.551417 0.000000
vt 0.935295 0.551194 0.000000
vt 0.936425 0.670188 0.000000
vt 0.912890 0.670411 0.000000
vt 0.898445 0.607899 0.000000
vt 0.911760 0.551417 0.000000
vt 0.912890 0.670411 0.000000
vt 0.899040 0.670543 0.000000
vt 0.851805 0.550544 0.000000
vt 0.860328 0.578292 0.000000
vt 0.837830 0.585202 0.000000
vt 0.829307 0.557455 0.000000
vt 0.683504 0.571576 0.000000
vt 0.761219 0.805206 0.000000
vt 0.735985 0.823222 0.000000
vt 0.653979 0.571547 0.000000
vt 0.766934 0.089187 0.000000
vt 0.822273 0.223000 0.000000
vt 0.632818 0.223000 0.000000
vt 0.626484 0.994243 0.000000
vt 0.481809 0.988138 0.000000
vt 0.502807 0.241463 0.000000
vt 0.668464 0.248453 0.000000
vt 0.761664 0.338358 0.000000
vt 0.683504 0.571576 0.000000
vt 0.653979 0.571547 0.000000
vt 0.736507 0.320136 0.000000
vt 0.633248 0.033545 0.000000
vt 0.766934 0.089187 0.000000
vt 0.632818 0.223000 0.000000
vt 0.481809 0.988138 0.000000
vt 0.337019 0.986103 0.000000
vt 0.337020 0.239132 0.000000
vt 0.502807 0.241463 0.000000
vt 0.970487 0.185172 0.000000
vt 0.761664 0.338358 0.000000
vt 0.736507 0.320136 0.000000
vt 0.958513 0.157182 0.000000
vt 0.499309 0.088580 0.000000
vt 0.633248 0.033545 0.000000
vt 0.632818 0.223000 0.000000
vt 0.337019 0.986103 0.000000
vt 0.192229 0.988138 0.000000
vt 0.171231 0.241463 0.000000
vt 0.337020 0.239132 0.000000
vt 0.857536 0.734023 0.000000
vt 1.000118 0.829400 0.000000
vt 0.971155 0.958360 0.000000
vt 0.761219 0.805206 0.000000
vt 0.443366 0.222141 0.000000
vt 0.499309 0.088580 0.000000
vt 0.632818 0.223000 0.000000
vt 0.192229 0.988138 0.000000
vt 0.047553 0.994243 0.000000
vt 0.005574 0.248453 0.000000
vt 0.171231 0.241463 0.000000
vt 0.808506 0.571663 0.000000
vt 0.857536 0.734023 0.000000
vt 0.761219 0.805206 0.000000
vt 0.683504 0.571576 0.000000
vt 0.857723 0.409295 0.000000
vt 0.808506 0.571663 0.000000
vt 0.683504 0.571576 0.000000
vt 0.761664 0.338358 0.000000
vt 0.999779 0.313822 0.000000
vt 0.857723 0.409295 0.000000
vt 0.761664 0.338358 0.000000
vt 0.970487 0.185172 0.000000
vt 0.104993 0.171938 0.000000
vt 0.051722 0.043331 0.000000
vt 0.233600 0.043331 0.000000
vt 0.233600 0.043331 0.000000
vt 0.415479 0.043331 0.000000
vt 0.362208 0.171938 0.000000
vt 0.761219 0.805206 0.000000
vt 0.971155 0.958360 0.000000
vt 0.958513 0.987838 0.000000
vt 0.735985 0.823222 0.000000
vt 0.233600 0.225209 0.000000
vt 0.104993 0.171938 0.000000
vt 0.233600 0.043331 0.000000
vt 0.362208 0.171938 0.000000
vt 0.233600 0.225209 0.000000
vt 0.233600 0.043331 0.000000
vt 0.683504 0.571576 0.000000
vt 0.761219 0.805206 0.000000
vt 0.735985 0.823222 0.000000
vt 0.653979 0.571547 0.000000
vt 0.766934 0.089187 0.000000
vt 0.822273 0.223000 0.000000
vt 0.632818 0.223000 0.000000
vt 0.626484 0.994243 0.000000
vt 0.481809 0.988138 0.000000
vt 0.502807 0.241463 0.000000
vt 0.668464 0.248453 0.000000
vt 0.761664 0.338358 0.000000
vt 0.683504 0.571576 0.000000
vt 0.653979 0.571547 0.000000
vt 0.736507 0.320136 0.000000
vt 0.633248 0.033545 0.000000
vt 0.766934 0.089187 0.000000
vt 0.632818 0.223000 0.000000
vt 0.481809 0.988138 0.000000
vt 0.337019 0.986103 0.000000
vt 0.337020 0.239132 0.000000
vt 0.502807 0.241463 0.000000
vt 0.970487 0.185172 0.000000
vt 0.761664 0.338358 0.000000
vt 0.736507 0.320136 0.000000
vt 0.958513 0.157182 0.000000
vt 0.499309 0.088580 0.000000
vt 0.633248 0.033545 0.000000
vt 0.632818 0.223000 0.000000
vt 0.337019 0.986103 0.000000
vt 0.192229 0.988138 0.000000
vt 0.171231 0.241463 0.000000
vt 0.337020 0.239132 0.000000
vt 0.857536 0.734023 0.000000
vt 1.000118 0.829400 0.000000
vt 0.971155 0.958360 0.000000
vt 0.761219 0.805206 0.000000
vt 0.443366 0.222141 0.000000
vt 0.499309 0.088580 0.000000
vt 0.632818 0.223000 0.000000
vt 0.192229 0.988138 0.000000
vt 0.047553 0.994243 0.000000
vt 0.005574 0.248453 0.000000
vt 0.171231 0.241463 0.000000
vt 0.808506 0.571663 0.000000
vt 0.857536 0.734023 0.000000
vt 0.761219 0.805206 0.000000
vt 0.683504 0.571576 0.000000
vt 0.857723 0.409295 0.000000
vt 0.808506 0.571663 0.000000
vt 0.683504 0.571576 0.000000
vt 0.761664 0.338358 0.000000
vt 0.999779 0.313822 0.000000
vt 0.857723 0.409295 0.000000
vt 0.761664 0.338358 0.000000
vt 0.970487 0.185172 0.000000
vt 0.104993 0.171938 0.000000
vt 0.051722 0.043331 0.000000
vt 0.233600 0.043331 0.000000
vt 0.233600 0.043331 0.000000
vt 0.415479 0.043331 0.000000
vt 0.362208 0.171938 0.000000
vt 0.761219 0.805206 0.000000
vt 0.971155 0.958360 0.000000
vt 0.958513 0.987838 0.000000
vt 0.735985 0.823222 0.000000
vt 0.233600 0.225209 0.000000
vt 0.104993 0.171938 0.000000
vt 0.233600 0.043331 0.000000
vt 0.362208 0.171938 0.000000
vt 0.233600 0.225209 0.000000
vt 0.233600 0.043331 0.000000
vt 0.995223 0.549183 0.000000
vt 0.987228 0.577088 0.000000
vt 0.935295 0.551194 0.000000
vt 0.934793 0.498248 0.000000
vt 0.911258 0.498472 0.000000
vt 0.934793 0.498248 0.000000
vt 0.935295 0.551194 0.000000
vt 0.911760 0.551417 0.000000
vt 0.911258 0.498472 0.000000
vt 0.911760 0.551417 0.000000
vt 0.860328 0.578292 0.000000
vt 0.851805 0.550544 0.000000
vt 0.874911 0.608123 0.000000
vt 0.898445 0.607899 0.000000
vt 0.899040 0.670543 0.000000
vt 0.875506 0.670766 0.000000
vt 0.935295 0.551194 0.000000
vt 0.949681 0.607413 0.000000
vt 0.950276 0.670056 0.000000
vt 0.936425 0.670188 0.000000
vt 0.911760 0.551417 0.000000
vt 0.935295 0.551194 0.000000
vt 0.936425 0.670188 0.000000
vt 0.912890 0.670411 0.000000
vt 0.898445 0.607899 0.000000
vt 0.911760 0.551417 0.000000
vt 0.912890 0.670411 0.000000
vt 0.899040 0.670543 0.000000
vt 0.851805 0.550544 0.000000
vt 0.860328 0.578292 0.000000
vt 0.837830 0.585202 0.000000
vt 0.829307 0.557455 0.000000
#end 208 texture vertices

#begin 56 faces
usemtl material19
f 2/1/1 11/2/2 9/3/3 8/4/4 
usemtl material19
f 10/5/5 8/6/6 9/7/7 7/8/8 
usemtl material19
f 10/9/9 7/10/10 12/11/11 4/12/12 
usemtl material19
f 11/13/13 12/14/14 3/15/15 6/16/16 
usemtl material19
f 9/17/17 11/18/18 6/19/19 5/20/20 
usemtl material19
f 7/21/21 9/22/22 5/23/23 1/24/24 
usemtl material19
f 12/25/25 7/26/26 1/27/27 3/28/28 
usemtl material19
f 4/29/29 12/30/30 11/31/31 2/32/32 
usemtl material19
f 33/33/33 34/34/34 26/35/35 27/36/36 
usemtl material19
f 17/37/37 15/38/38 41/39/39 
usemtl material19
f 15/40/40 17/41/41 18/42/42 43/43/43 
usemtl material19
f 32/44/44 33/45/45 27/46/46 28/47/47 
usemtl material19
f 19/48/48 17/49/49 41/50/50 
usemtl material19
f 17/51/51 19/52/52 20/53/53 18/54/54 
usemtl material19
f 31/55/55 32/56/56 28/57/57 30/58/58 
usemtl material19
f 21/59/59 19/60/60 41/61/61 
usemtl material19
f 19/62/62 21/63/63 22/64/64 20/65/65 
usemtl material19
f 22/66/66 24/67/67 23/68/68 34/69/69 
usemtl material19
f 16/70/70 21/71/71 41/72/72 
usemtl material19
f 21/73/73 16/74/74 24/75/75 22/76/76 
usemtl material19
f 20/77/77 22/78/78 34/79/79 33/80/80 
usemtl material19
f 18/81/81 20/82/82 33/83/83 32/84/84 
usemtl material19
f 43/85/85 18/86/86 32/87/87 31/88/88 
usemtl material19
f 26/89/89 14/90/90 13/91/91 
usemtl material19
f 13/92/92 30/93/93 28/94/94 
usemtl material19
f 34/95/95 23/96/96 14/97/97 26/98/98 
usemtl material19
f 27/99/99 26/100/100 13/101/101 
usemtl material19
f 28/102/102 27/103/103 13/104/104 
usemtl material19
f 38/108/108 37/107/107 36/106/106 35/105/105 
usemtl material19
f 41/111/111 15/110/110 39/109/109 
usemtl material19
f 43/115/115 42/114/114 39/113/113 15/112/112 
usemtl material19
f 45/119/119 38/118/118 35/117/117 44/116/116 
usemtl material19
f 41/122/122 39/121/121 46/120/120 
usemtl material19
f 42/126/126 40/125/125 46/124/124 39/123/123 
usemtl material19
f 30/130/130 45/129/129 44/128/128 31/127/127 
usemtl material19
f 41/133/133 46/132/132 29/131/131 
usemtl material19
f 40/137/137 25/136/136 29/135/135 46/134/134 
usemtl material19
f 36/141/141 23/140/140 24/139/139 25/138/138 
usemtl material19
f 41/144/144 29/143/143 16/142/142 
usemtl material19
f 25/148/148 24/147/147 16/146/146 29/145/145 
usemtl material19
f 35/152/152 36/151/151 25/150/150 40/149/149 
usemtl material19
f 44/156/156 35/155/155 40/154/154 42/153/153 
usemtl material19
f 31/160/160 44/159/159 42/158/158 43/157/157 
usemtl material19
f 13/163/163 14/162/162 37/161/161 
usemtl material19
f 45/166/166 30/165/165 13/164/164 
usemtl material19
f 37/170/170 14/169/169 23/168/168 36/167/167 
usemtl material19
f 13/173/173 37/172/172 38/171/171 
usemtl material19
f 13/176/176 38/175/175 45/174/174 
usemtl material19
f 50/180/180 49/179/179 48/178/178 47/177/177 
usemtl material19
f 52/184/184 49/183/183 50/182/182 51/181/181 
usemtl material19
f 54/188/188 53/187/187 52/186/186 51/185/185 
usemtl material19
f 6/192/192 3/191/191 53/190/190 48/189/189 
usemtl material19
f 5/196/196 6/195/195 48/194/194 49/193/193 
usemtl material19
f 1/200/200 5/199/199 49/198/198 52/197/197 
usemtl material19
f 3/204/204 1/203/203 52/202/202 53/201/201 
usemtl material19
f 47/208/208 48/207/207 53/206/206 54/205/205 
#end 56 faces
