# XSI Wavefront OBJ Export v3.0
# File Created: Sat Dec 03 20:52:08 2016
# XSI Version: 6.02.2007.0613
mtllib Street_Sign.mtl

o Street_Sign
# Hierarchy (from self to top father)
g Street_Sign

#begin 30 vertices
v -0.012406 2.721594 -0.430047
v 0.010298 2.722795 -0.434439
v 0.010298 2.486391 -0.435166
v -0.012406 2.487581 -0.430766
v -0.012406 2.720454 0.430201
v 0.010298 2.721644 0.434601
v -0.012406 2.486441 0.429482
v 0.010298 2.485240 0.433874
v -0.001054 0.000741 0.035739
v -0.030424 2.253519 0.018783
v -0.435938 2.252329 -0.001614
v -0.431537 2.253519 0.017180
v -0.001054 0.001481 0.001826
v -0.001054 2.253519 -0.032087
v -0.001054 0.000741 -0.032087
v 0.028315 2.253519 -0.015131
v 0.433103 2.251177 -0.001614
v 0.428710 2.252379 0.017180
v 0.433829 2.487581 -0.001614
v 0.429429 2.486391 0.017180
v 0.028315 0.000741 -0.015131
v 0.028315 2.253519 0.018783
v 0.028315 0.000741 0.018783
v -0.001054 2.253519 0.035739
v -0.435211 2.488733 -0.001614
v -0.430818 2.487531 0.017180
v -0.030424 2.253519 -0.015131
v -0.001054 2.253519 0.001826
v -0.030424 0.000741 0.018783
v -0.030424 0.000741 -0.015131
#end 30 vertices

#begin 108 normals
vn -1.000000 -0.000000 -0.000000
vn -1.000000 -0.000000 -0.000000
vn -1.000000 -0.000000 -0.000000
vn -0.052604 0.998615 0.001323
vn -0.052604 0.998615 0.001323
vn -0.052604 0.998615 0.001323
vn -0.052604 0.998615 0.001323
vn -1.000000 -0.000000 -0.000000
vn 1.000000 0.000000 0.000000
vn 1.000000 0.000000 0.000000
vn 1.000000 0.000000 0.000000
vn 1.000000 0.000000 0.000000
vn -0.190111 -0.003017 0.981758
vn -0.052604 -0.998615 -0.001323
vn -0.052604 -0.998615 -0.001323
vn -0.052604 -0.998615 -0.001323
vn -0.052604 -0.998615 -0.001323
vn -0.190111 -0.003017 0.981758
vn -0.190111 0.003017 -0.981758
vn -0.190111 0.003017 -0.981758
vn -0.190111 -0.003017 0.981758
vn -0.190111 -0.003017 0.981758
vn -0.190111 0.003017 -0.981758
vn -0.190111 0.003017 -0.981758
vn 0.000000 0.000000 1.000000
vn 0.000000 0.000000 1.000000
vn 0.000000 0.000000 1.000000
vn 0.001322 0.997980 0.063508
vn 0.001322 0.997980 0.063508
vn 0.001322 0.997980 0.063508
vn 0.001322 0.997980 0.063508
vn 0.000000 0.000000 1.000000
vn -0.000000 -0.000000 -1.000000
vn -0.000000 -0.000000 -1.000000
vn -0.000000 -0.000000 -1.000000
vn -0.000000 -0.000000 -1.000000
vn 0.000000 1.000000 0.000000
vn -0.001322 -0.997980 0.063508
vn -0.001322 -0.997980 0.063508
vn -0.001322 -0.997980 0.063508
vn -0.001322 -0.997980 0.063508
vn 0.000000 1.000000 0.000000
vn -0.973707 0.002992 0.227784
vn -0.973707 0.002992 0.227784
vn -0.500000 0.000000 -0.866025
vn -0.500000 0.000000 -0.866025
vn 0.000000 1.000000 0.000000
vn 0.000000 1.000000 0.000000
vn 0.000000 1.000000 0.000000
vn 0.500000 -0.000000 -0.866025
vn 0.500000 -0.000000 -0.866025
vn 0.500000 -0.000000 -0.866025
vn 0.500000 -0.000000 -0.866025
vn -0.500000 0.000000 -0.866025
vn -0.973707 0.002992 0.227784
vn -0.973707 0.002992 0.227784
vn 0.000000 1.000000 0.000000
vn 0.973707 -0.002992 0.227784
vn 0.973707 -0.002992 0.227784
vn 0.973707 -0.002992 0.227784
vn 0.973707 -0.002992 0.227784
vn -0.500000 0.000000 0.866025
vn -0.500000 0.000000 0.866025
vn -0.500000 0.000000 0.866025
vn -0.500000 0.000000 -0.866025
vn 0.000000 1.000000 0.000000
vn 0.000000 1.000000 0.000000
vn 0.000000 1.000000 0.000000
vn 0.000000 1.000000 0.000000
vn 1.000000 -0.000000 0.000000
vn 1.000000 -0.000000 0.000000
vn 1.000000 -0.000000 0.000000
vn 1.000000 -0.000000 0.000000
vn 0.000000 1.000000 0.000000
vn 0.000000 1.000000 0.000000
vn -1.000000 0.000000 0.000000
vn 0.000000 1.000000 0.000000
vn 0.000000 1.000000 0.000000
vn 0.000000 1.000000 0.000000
vn 0.500000 -0.000000 0.866025
vn 0.500000 -0.000000 0.866025
vn 0.500000 -0.000000 0.866025
vn 0.500000 -0.000000 0.866025
vn -1.000000 0.000000 0.000000
vn -1.000000 0.000000 0.000000
vn -1.000000 0.000000 0.000000
vn 0.000000 1.000000 0.000000
vn 0.000000 1.000000 0.000000
vn 0.000000 1.000000 0.000000
vn -0.500000 0.000000 0.866025
vn 0.018907 -0.999762 0.010916
vn 0.018907 -0.999762 -0.010916
vn 0.000000 -1.000000 0.000000
vn -0.018907 -0.999762 0.010916
vn 0.000000 -0.999762 0.021832
vn 0.000000 -1.000000 0.000000
vn 0.018907 -0.999762 -0.010916
vn 0.000000 -0.999762 -0.021832
vn 0.000000 -1.000000 0.000000
vn -0.018907 -0.999762 -0.010916
vn -0.018907 -0.999762 0.010916
vn 0.000000 -1.000000 0.000000
vn 0.000000 -0.999762 0.021832
vn 0.018907 -0.999762 0.010916
vn 0.000000 -1.000000 0.000000
vn 0.000000 -0.999762 -0.021832
vn -0.018907 -0.999762 -0.010916
vn 0.000000 -1.000000 0.000000
#end 108 vertex normals

#begin 108 texture vertices
vt 0.609229 0.041373 0.000000
vt 0.359455 0.041373 0.000000
vt 0.359455 0.959560 0.000000
vt 0.642836 0.959560 0.000000
vt 0.642836 0.041373 0.000000
vt 0.609229 0.041373 0.000000
vt 0.609229 0.959560 0.000000
vt 0.609229 0.959560 0.000000
vt 0.609229 0.041373 0.000000
vt 0.359455 0.041373 0.000000
vt 0.359455 0.959560 0.000000
vt 0.609229 0.959560 0.000000
vt 0.359455 0.041373 0.000000
vt 0.359455 0.041373 0.000000
vt 0.325789 0.041373 0.000000
vt 0.325789 0.959560 0.000000
vt 0.359455 0.959560 0.000000
vt 0.609229 0.041373 0.000000
vt 0.609229 0.959560 0.000000
vt 0.359455 0.959560 0.000000
vt 0.609229 0.005601 0.000000
vt 0.359455 0.005601 0.000000
vt 0.609229 0.993776 0.000000
vt 0.359455 0.993776 0.000000
vt 0.284358 0.041373 0.000000
vt 0.034585 0.041373 0.000000
vt 0.034585 0.959560 0.000000
vt 0.317965 0.959560 0.000000
vt 0.317965 0.041373 0.000000
vt 0.284358 0.041373 0.000000
vt 0.284358 0.959560 0.000000
vt 0.284358 0.959560 0.000000
vt 0.284358 0.041373 0.000000
vt 0.034585 0.041373 0.000000
vt 0.034585 0.959560 0.000000
vt 0.284358 0.959560 0.000000
vt 0.651693 0.101396 0.000000
vt 0.034585 0.041373 0.000000
vt 0.000919 0.041373 0.000000
vt 0.000919 0.959560 0.000000
vt 0.034585 0.959560 0.000000
vt 0.731197 0.101396 0.000000
vt 0.284358 0.959560 0.000000
vt 0.034585 0.959560 0.000000
vt 0.848669 0.000000 0.000000
vt 0.873193 0.000000 0.000000
vt 0.731197 0.101396 0.000000
vt 0.770948 0.170248 0.000000
vt 0.810700 0.101396 0.000000
vt 0.971290 1.000000 0.000000
vt 0.995814 1.000000 0.000000
vt 0.995814 0.000000 0.000000
vt 0.971290 0.000000 0.000000
vt 0.873193 1.000000 0.000000
vt 0.034585 0.993776 0.000000
vt 0.284358 0.993776 0.000000
vt 0.691445 0.170248 0.000000
vt 0.034585 0.005601 0.000000
vt 0.284358 0.005601 0.000000
vt 0.284358 0.041373 0.000000
vt 0.034585 0.041373 0.000000
vt 0.897717 0.000000 0.000000
vt 0.922242 0.000000 0.000000
vt 0.922242 1.000000 0.000000
vt 0.848669 1.000000 0.000000
vt 0.770948 0.170248 0.000000
vt 0.731197 0.101396 0.000000
vt 0.810700 0.101396 0.000000
vt 0.770948 0.032544 0.000000
vt 0.946766 1.000000 0.000000
vt 0.971290 1.000000 0.000000
vt 0.971290 0.000000 0.000000
vt 0.946766 0.000000 0.000000
vt 0.691445 0.170248 0.000000
vt 0.731197 0.101396 0.000000
vt 0.873193 0.000000 0.000000
vt 0.731197 0.101396 0.000000
vt 0.770948 0.032544 0.000000
vt 0.691445 0.032544 0.000000
vt 0.922242 1.000000 0.000000
vt 0.946766 1.000000 0.000000
vt 0.946766 0.000000 0.000000
vt 0.922242 0.000000 0.000000
vt 0.897717 0.000000 0.000000
vt 0.897717 1.000000 0.000000
vt 0.873193 1.000000 0.000000
vt 0.731197 0.101396 0.000000
vt 0.691445 0.032544 0.000000
vt 0.651693 0.101396 0.000000
vt 0.897717 1.000000 0.000000
vt 0.691445 0.170248 0.000000
vt 0.651693 0.101396 0.000000
vt 0.731197 0.101396 0.000000
vt 0.810700 0.101396 0.000000
vt 0.770948 0.170248 0.000000
vt 0.731197 0.101396 0.000000
vt 0.651693 0.101396 0.000000
vt 0.691445 0.032544 0.000000
vt 0.731197 0.101396 0.000000
vt 0.770948 0.032544 0.000000
vt 0.810700 0.101396 0.000000
vt 0.731197 0.101396 0.000000
vt 0.770948 0.170248 0.000000
vt 0.691445 0.170248 0.000000
vt 0.731197 0.101396 0.000000
vt 0.691445 0.032544 0.000000
vt 0.770948 0.032544 0.000000
vt 0.731197 0.101396 0.000000
#end 108 texture vertices

#begin 30 faces
usemtl material20
f 1/8/8 4/3/3 7/2/2 5/1/1 
usemtl material20
f 6/7/7 2/6/6 1/5/5 5/4/4 
usemtl material20
f 6/12/12 8/11/11 3/10/10 2/9/9 
usemtl material20
f 2/23/23 3/24/24 4/20/20 1/19/19 
usemtl material20
f 8/17/17 7/16/16 4/15/15 3/14/14 
usemtl material20
f 8/22/22 6/21/21 5/18/18 7/13/13 
usemtl material20
f 26/32/32 12/27/27 18/26/26 20/25/25 
usemtl material20
f 19/31/31 25/30/30 26/29/29 20/28/28 
usemtl material20
f 19/36/36 17/35/35 11/34/34 25/33/33 
usemtl material20
f 25/56/56 11/55/55 12/44/44 26/43/43 
usemtl material20
f 17/41/41 18/40/40 12/39/39 11/38/38 
usemtl material20
f 27/57/57 10/37/37 28/42/42 
usemtl material20
f 16/49/49 14/48/48 28/47/47 
usemtl material20
f 21/53/53 15/52/52 14/51/51 16/50/50 
usemtl material20
f 15/45/45 30/46/46 27/54/54 14/65/65 
usemtl material20
f 29/62/62 9/63/63 24/64/64 10/90/90 
usemtl material20
f 17/58/58 19/59/59 20/60/60 18/61/61 
usemtl material20
f 10/89/89 24/88/88 28/87/87 
usemtl material20
f 22/69/69 16/68/68 28/67/67 
usemtl material20
f 23/73/73 21/72/72 16/71/71 22/70/70 
usemtl material20
f 14/66/66 27/74/74 28/75/75 
usemtl material20
f 24/79/79 22/78/78 28/77/77 
usemtl material20
f 9/83/83 23/82/82 22/81/81 24/80/80 
usemtl material20
f 30/76/76 29/84/84 10/85/85 27/86/86 
usemtl material20
f 13/93/93 29/92/92 30/91/91 
usemtl material20
f 13/96/96 15/95/95 21/94/94 
usemtl material20
f 13/99/99 9/98/98 29/97/97 
usemtl material20
f 13/102/102 21/101/101 23/100/100 
usemtl material20
f 13/105/105 30/104/104 15/103/103 
usemtl material20
f 13/108/108 23/107/107 9/106/106 
#end 30 faces
