# File produced by Open Asset Import Library (http://www.assimp.sf.net)
# (assimp v3.1.35440475)

mtllib Window.mtl

# 48 vertex positions
v  -24.2601 -6.99922 0.211128
v  -24.2601 -7.78693 0.211128
v  -10.9098 -7.78693 0.211128
v  -10.9098 -6.99921 0.211128
v  -25.1951 7.78693 0.211128
v  -24.2601 7.78693 0.211128
v  -10.9098 7.78693 0.211128
v  -9.7843 7.78693 0.211128
v  9.7843 7.78693 0.211128
v  10.9098 7.78693 0.211128
v  24.2601 7.78693 0.211128
v  25.1951 7.78693 0.211128
v  25.1951 7.78693 -0.211128
v  -25.1951 7.78693 -0.211128
v  25.1951 6.99921 0.211128
v  25.1951 -6.99922 0.211128
v  25.1951 -7.78693 0.211128
v  25.1951 -7.78693 -0.211128
v  -25.1951 -7.78693 -0.211128
v  -25.1951 -7.78693 0.211128
v  -25.1951 -6.99922 0.211128
v  -25.1951 6.99921 0.211128
v  24.2601 -7.78693 0.211128
v  10.9098 -7.78693 0.211128
v  9.7843 -7.78693 0.211128
v  -9.7843 -7.78693 0.211128
v  24.2601 -6.99922 0.211128
v  10.9098 -6.99921 0.211128
v  9.7843 -6.99921 0.211128
v  -9.7843 -6.99921 0.211128
v  9.7843 6.99921 0.211128
v  10.9098 6.99921 0.211128
v  -9.7843 6.99921 0.211128
v  -10.9098 6.99921 0.211128
v  -24.2601 6.99921 0.211128
v  24.2601 6.99921 0.211128
v  9.7843 6.99921 -0.034075
v  -9.7843 6.99921 -0.034075
v  -9.7843 -6.99921 -0.034075
v  9.7843 -6.99921 -0.034075
v  -24.2601 6.99921 -0.034075
v  -24.2601 -6.99922 -0.034075
v  -10.9098 -6.99921 -0.034075
v  -10.9098 6.99921 -0.034075
v  24.2601 -6.99922 -0.034075
v  24.2601 6.99921 -0.034075
v  10.9098 6.99921 -0.034075
v  10.9098 -6.99921 -0.034075

# 114 UV coordinates
vt 0.832482 0.514068 0
vt 0.832482 0.5 0
vt 0.906171 0.5 0
vt 0.906171 0.514068 0
vt 0.278658 0.278136 0
vt 0.283819 0.278136 0
vt 0.357508 0.278136 0
vt 0.363721 0.278136 0
vt 0.471732 0.278136 0
vt 0.477944 0.278136 0
vt 0.551634 0.278136 0
vt 0.556794 0.278136 0
vt 0.556794 0.556272 0
vt 0.278658 0.556272 0
vt 0.264067 0.556273 0
vt 0.014069 0.556273 0
vt 0 0.556273 0
vt 0 0.278136 0
vt 0.278135 0.278136 0
vt 0.278135 0.556273 0
vt 0.278136 0.278136 0
vt 0 0 0
vt 0.278136 0 0
vt 0.278136 0.014068 0
vt 0.278136 0.264068 0
vt 0 0.834409 0
vt 0.278136 0.556273 0
vt 0.278136 0.834409 0
vt 0.278658 0 0
vt 0.556794 0 0
vt 0.477945 0.278136 0
vt 0.471733 0.278136 0
vt 0.52555 0.556272 0
vt 0.52555 0.570341 0
vt 0.52039 0.570341 0
vt 0.52039 0.556272 0
vt 0.4467 0.570341 0
vt 0.440488 0.570341 0
vt 0.440488 0.556272 0
vt 0.4467 0.556272 0
vt 0.891197 0.806271 0
vt 0.783186 0.806271 0
vt 0.783186 0.792203 0
vt 0.891197 0.792203 0
vt 0.912383 0.514068 0
vt 0.912383 0.5 0
vt 0.4467 0.834409 0
vt 0.440488 0.834409 0
vt 0.440488 0.820342 0
vt 0.4467 0.820342 0
vt 0.891199 0.792203 0
vt 0.783186 0.778135 0
vt 0.891199 0.778135 0
vt 0.912383 0.778135 0
vt 0.906171 0.778135 0
vt 0.906171 0.764067 0
vt 0.912383 0.764067 0
vt 0.832482 0.778135 0
vt 0.832482 0.764067 0
vt 0.52555 0.834409 0
vt 0.52039 0.834409 0
vt 0.52039 0.820342 0
vt 0.52555 0.820342 0
vt 0.827158 0.749999 0
vt 0.719146 0.749999 0
vt 0.719146 0.5 0
vt 0.827158 0.5 0
vt 0.526163 1 0
vt 0.526163 0.75 0
vt 0.599852 0.75 0
vt 0.599852 1 0
vt 0.827321 0.764067 0
vt 0.827321 0.514068 0
vt 0.827321 0.5 0
vt 0.827321 0.778135 0
vt 0.954665 0 0
vt 0.954665 0.25 0
vt 0.880976 0.25 0
vt 0.880976 0 0
vt 0.440172 0.806272 0
vt 0.278658 0.806272 0
vt 0.440172 0.556272 0
vt 0.880976 0.411513 0
vt 0.988988 0.25 0
vt 0.988988 0.411513 0
vt 0.557317 0.5 0
vt 0.71883 0.5 0
vt 0.71883 0.75 0
vt 0.557317 0.75 0
vt 0.708599 0.75 0
vt 0.708599 0.911512 0
vt 0.600587 0.911512 0
vt 0.600587 0.75 0
vt 0.912996 0.896052 0
vt 0.912996 0.734539 0
vt 0.986685 0.734539 0
vt 0.986685 0.896052 0
vt 0.719146 0 0
vt 0.88066 0 0
vt 0.88066 0.25 0
vt 0.719146 0.25 0
vt 0.986685 0.411513 0
vt 0.986685 0.573026 0
vt 0.912996 0.573026 0
vt 0.912996 0.411513 0
vt 0.557317 0.25 0
vt 0.71883 0.25 0
vt 0.782451 0.75 0
vt 0.782451 0.911512 0
vt 0.708762 0.911512 0
vt 0.708762 0.75 0
vt 0.88066 0.5 0
vt 0.557317 0 0
vt 0.71883 0 0

# 8 vertex normals
vn -0 -0 1
vn 0 1 1e-06
vn 1 0 0
vn -1 0 0
vn 0 0 -1
vn 0 -1 1e-06
vn 0 1 0
vn 0 -1 0

# Mesh 'g pCube1_pCube1' with 92 faces
g g pCube1_pCube1
usemtl initialShadingGroup
f  1/1/1 2/2/1 3/3/1
f  3/3/1 4/4/1 1/1/1
f  5/5/2 6/6/2 7/7/2
f  7/7/2 8/8/2 9/9/2
f  7/7/2 9/9/2 10/10/2
f  7/7/2 10/10/2 11/11/2
f  11/11/2 12/12/2 13/13/2
f  11/11/2 13/13/2 14/14/2
f  11/11/2 14/14/2 5/5/2
f  7/7/2 11/11/2 5/5/2
f  15/15/3 16/16/3 17/17/3
f  15/15/3 17/17/3 18/18/3
f  15/15/3 18/18/3 13/19/3
f  13/19/3 12/20/3 15/15/3
f  5/21/4 14/18/4 19/22/4
f  5/21/4 19/22/4 20/23/4
f  20/23/4 21/24/4 22/25/4
f  20/23/4 22/25/4 5/21/4
f  14/26/5 13/17/5 18/27/5
f  18/27/5 19/28/5 14/26/5
f  20/5/6 19/29/6 18/30/6
f  20/5/6 18/30/6 17/12/6
f  17/12/6 23/11/6 24/31/6
f  24/31/6 25/32/6 26/8/6
f  24/31/6 26/8/6 3/7/6
f  24/31/6 3/7/6 2/6/6
f  2/6/6 20/5/6 17/12/6
f  17/12/6 24/31/6 2/6/6
f  17/33/1 16/34/1 27/35/1
f  27/35/1 23/36/1 17/33/1
f  28/37/1 29/38/1 25/39/1
f  25/39/1 24/40/1 28/37/1
f  29/41/1 30/42/1 26/43/1
f  26/43/1 25/44/1 29/41/1
f  30/45/1 4/4/1 3/3/1
f  3/3/1 26/46/1 30/45/1
f  10/47/1 9/48/1 31/49/1
f  31/49/1 32/50/1 10/47/1
f  9/51/1 8/43/1 33/52/1
f  33/52/1 31/53/1 9/51/1
f  8/54/1 7/55/1 34/56/1
f  34/56/1 33/57/1 8/54/1
f  7/55/1 6/58/1 35/59/1
f  35/59/1 34/56/1 7/55/1
f  12/60/1 11/61/1 36/62/1
f  36/62/1 15/63/1 12/60/1
f  32/50/1 31/49/1 29/38/1
f  29/38/1 28/37/1 32/50/1
f  37/64/1 38/65/1 39/66/1
f  39/66/1 40/67/1 37/64/1
f  33/57/1 34/56/1 4/4/1
f  4/4/1 30/45/1 33/57/1
f  41/68/1 42/69/1 43/70/1
f  43/70/1 44/71/1 41/68/1
f  16/34/1 15/63/1 36/62/1
f  36/62/1 27/35/1 16/34/1
f  22/72/1 21/73/1 1/1/1
f  1/1/1 35/59/1 22/72/1
f  21/73/1 20/74/1 2/2/1
f  2/2/1 1/1/1 21/73/1
f  5/75/1 22/72/1 35/59/1
f  35/59/1 6/58/1 5/75/1
f  45/76/1 46/77/1 47/78/1
f  47/78/1 48/79/1 45/76/1
f  24/40/1 23/36/1 27/35/1
f  27/35/1 28/37/1 24/40/1
f  11/61/1 10/47/1 32/50/1
f  32/50/1 36/62/1 11/61/1
f  38/80/3 33/81/3 30/14/3
f  30/14/3 39/82/3 38/80/3
f  39/83/7 30/78/7 29/84/7
f  29/84/7 40/85/7 39/83/7
f  40/86/4 29/87/4 31/88/4
f  31/88/4 37/89/4 40/86/4
f  37/90/8 31/91/8 33/92/8
f  33/92/8 38/93/8 37/90/8
f  42/94/7 1/95/7 4/96/7
f  4/96/7 43/97/7 42/94/7
f  43/98/4 4/99/4 34/100/4
f  34/100/4 44/101/4 43/98/4
f  44/102/8 34/103/8 35/104/8
f  35/104/8 41/105/8 44/102/8
f  41/87/3 35/86/3 1/106/3
f  1/106/3 42/107/3 41/87/3
f  46/108/8 36/109/8 32/110/8
f  32/110/8 47/111/8 46/108/8
f  47/112/3 32/66/3 28/101/3
f  28/101/3 48/100/3 47/112/3
f  48/95/7 28/104/7 27/103/7
f  27/103/7 45/96/7 48/95/7
f  45/113/4 27/114/4 36/107/4
f  36/107/4 46/106/4 45/113/4

