# XSI Wavefront OBJ Export v3.0
# File Created: Sat Dec 03 20:33:05 2016
# XSI Version: 6.02.2007.0613
mtllib Bollard.mtl

o Bollard
# Hierarchy (from self to top father)
g Bollard

#begin 25 vertices
v -0.040642 0.989523 -0.040642
v 0.000000 1.002893 0.000000
v 0.000000 0.989523 -0.057477
v -0.079276 0.966240 0.000000
v 0.040642 0.989523 -0.040642
v -0.056057 0.966240 0.056057
v -0.056057 -0.000000 -0.056057
v 0.000000 0.966240 0.079276
v 0.056057 -0.000000 0.056057
v 0.056057 0.966240 0.056057
v 0.079276 -0.000000 0.000000
v 0.079276 0.966240 0.000000
v 0.056057 -0.000000 -0.056057
v 0.056057 0.966240 -0.056057
v 0.000000 -0.000000 -0.079276
v 0.000000 0.966240 -0.079276
v 0.057477 0.989523 0.000000
v -0.056057 0.966240 -0.056057
v -0.040642 0.989523 0.040642
v -0.057477 0.989523 -0.000000
v -0.000000 0.989523 0.057477
v 0.040642 0.989523 0.040642
v 0.000000 -0.000000 0.079276
v -0.056057 -0.000000 0.056057
v -0.079276 -0.000000 0.000000
#end 25 vertices

#begin 88 normals
vn -0.349784 0.869081 -0.349784
vn -0.349784 0.869081 -0.349784
vn 0.000000 0.869081 -0.494669
vn -0.349784 0.869081 -0.349784
vn -0.494669 0.869081 0.000000
vn 0.000000 0.869081 -0.494669
vn -0.349784 0.869081 -0.349784
vn -0.927455 0.373936 0.000000
vn -0.655809 0.373936 0.655809
vn 0.000000 1.000000 -0.000000
vn 0.000000 0.869081 -0.494669
vn 0.349784 0.869081 -0.349784
vn 0.349784 0.869081 -0.349784
vn 0.349784 0.869081 -0.349784
vn 0.000000 0.869081 -0.494669
vn 0.494669 0.869081 0.000000
vn 0.349784 0.869081 -0.349784
vn -0.655809 0.373936 0.655809
vn 0.000000 0.373936 0.927455
vn 0.000000 1.000000 -0.000000
vn 0.494669 0.869081 0.000000
vn 0.494669 0.869081 0.000000
vn 0.349784 0.869081 0.349784
vn 0.000000 0.000000 1.000000
vn 0.707107 0.000000 0.707107
vn 0.655809 0.373936 0.655809
vn 0.000000 0.373936 0.927455
vn 0.000000 0.373936 0.927455
vn 0.655809 0.373936 0.655809
vn 0.000000 1.000000 -0.000000
vn 0.349784 0.869081 0.349784
vn 0.000000 0.869081 0.494669
vn 0.000000 0.869081 0.494669
vn 0.707107 0.000000 0.707107
vn 1.000000 0.000000 0.000000
vn 0.927455 0.373936 0.000000
vn 0.655809 0.373936 0.655809
vn 0.655809 0.373936 0.655809
vn 0.927455 0.373936 0.000000
vn 0.000000 1.000000 -0.000000
vn -0.494669 0.869081 0.000000
vn -0.494669 0.869081 0.000000
vn -0.349784 0.869081 0.349784
vn 1.000000 0.000000 0.000000
vn 0.707107 0.000000 -0.707107
vn 0.655809 0.373936 -0.655809
vn 0.927455 0.373936 0.000000
vn 0.927455 0.373936 0.000000
vn 0.655809 0.373936 -0.655809
vn 0.000000 1.000000 -0.000000
vn -0.349784 0.869081 0.349784
vn 0.000000 1.000000 -0.000000
vn -0.927455 0.373936 0.000000
vn 0.707107 0.000000 -0.707107
vn 0.000000 -0.000000 -1.000000
vn 0.000000 0.373936 -0.927455
vn 0.655809 0.373936 -0.655809
vn 0.655809 0.373936 -0.655809
vn 0.000000 0.373936 -0.927455
vn 0.000000 1.000000 -0.000000
vn -0.655809 0.373936 -0.655809
vn -0.349784 0.869081 0.349784
vn -0.494669 0.869081 0.000000
vn 0.349784 0.869081 0.349784
vn 0.494669 0.869081 0.000000
vn 0.000000 0.869081 0.494669
vn 0.349784 0.869081 0.349784
vn 0.000000 0.373936 -0.927455
vn -0.655809 0.373936 -0.655809
vn 0.000000 1.000000 -0.000000
vn 0.000000 0.869081 0.494669
vn -0.349784 0.869081 0.349784
vn 0.000000 0.000000 1.000000
vn -0.707107 0.000000 0.707107
vn -0.655809 0.373936 0.655809
vn 0.000000 0.373936 0.927455
vn -0.707107 0.000000 0.707107
vn -1.000000 0.000000 0.000000
vn -0.927455 0.373936 0.000000
vn -0.655809 0.373936 0.655809
vn -1.000000 0.000000 0.000000
vn -0.707107 -0.000000 -0.707107
vn -0.655809 0.373936 -0.655809
vn -0.927455 0.373936 0.000000
vn -0.707107 -0.000000 -0.707107
vn 0.000000 -0.000000 -1.000000
vn 0.000000 0.373936 -0.927455
vn -0.655809 0.373936 -0.655809
#end 88 vertex normals

#begin 88 texture vertices
vt 0.809047 0.971896 0.000000
vt 0.809047 0.971896 0.000000
vt 0.857103 0.972211 0.000000
vt 0.809047 0.971896 0.000000
vt 0.775289 0.937693 0.000000
vt 0.857103 0.972211 0.000000
vt 0.809047 0.971896 0.000000
vt 0.753227 0.946662 0.000000
vt 0.753661 0.880379 0.000000
vt 0.833455 0.914044 0.000000
vt 0.857103 0.972211 0.000000
vt 0.891306 0.938452 0.000000
vt 0.891306 0.938452 0.000000
vt 0.891306 0.938452 0.000000
vt 0.857103 0.972211 0.000000
vt 0.891621 0.890396 0.000000
vt 0.891306 0.938452 0.000000
vt 0.753661 0.880379 0.000000
vt 0.800837 0.833817 0.000000
vt 0.833455 0.914044 0.000000
vt 0.891621 0.890396 0.000000
vt 0.891621 0.890396 0.000000
vt 0.857863 0.856193 0.000000
vt 0.533871 0.006659 0.000000
vt 0.639437 0.006659 0.000000
vt 0.639437 0.823283 0.000000
vt 0.533871 0.823283 0.000000
vt 0.800837 0.833817 0.000000
vt 0.867120 0.834251 0.000000
vt 0.833455 0.914044 0.000000
vt 0.857863 0.856193 0.000000
vt 0.809806 0.855878 0.000000
vt 0.809806 0.855878 0.000000
vt 0.639437 0.006659 0.000000
vt 0.745003 0.006659 0.000000
vt 0.745003 0.823283 0.000000
vt 0.639437 0.823283 0.000000
vt 0.867120 0.834251 0.000000
vt 0.913682 0.881427 0.000000
vt 0.833455 0.914044 0.000000
vt 0.775289 0.937693 0.000000
vt 0.775289 0.937693 0.000000
vt 0.775603 0.889636 0.000000
vt 0.745003 0.006659 0.000000
vt 0.850568 0.006659 0.000000
vt 0.850568 0.823283 0.000000
vt 0.745003 0.823283 0.000000
vt 0.913682 0.881427 0.000000
vt 0.913248 0.947709 0.000000
vt 0.833455 0.914044 0.000000
vt 0.775603 0.889636 0.000000
vt 0.833455 0.914044 0.000000
vt 0.753227 0.946662 0.000000
vt 0.850568 0.006659 0.000000
vt 0.956133 0.006659 0.000000
vt 0.956133 0.823283 0.000000
vt 0.850568 0.823283 0.000000
vt 0.913248 0.947709 0.000000
vt 0.866072 0.994272 0.000000
vt 0.833455 0.914044 0.000000
vt 0.799790 0.993838 0.000000
vt 0.775603 0.889636 0.000000
vt 0.775289 0.937693 0.000000
vt 0.857863 0.856193 0.000000
vt 0.891621 0.890396 0.000000
vt 0.809806 0.855878 0.000000
vt 0.857863 0.856193 0.000000
vt 0.866072 0.994272 0.000000
vt 0.799790 0.993838 0.000000
vt 0.833455 0.914044 0.000000
vt 0.809806 0.855878 0.000000
vt 0.775603 0.889636 0.000000
vt 0.533871 0.006659 0.000000
vt 0.639437 0.006659 0.000000
vt 0.639437 0.823283 0.000000
vt 0.533871 0.823283 0.000000
vt 0.639437 0.006659 0.000000
vt 0.745003 0.006659 0.000000
vt 0.745003 0.823283 0.000000
vt 0.639437 0.823283 0.000000
vt 0.745003 0.006659 0.000000
vt 0.850568 0.006659 0.000000
vt 0.850568 0.823283 0.000000
vt 0.745003 0.823283 0.000000
vt 0.850568 0.006659 0.000000
vt 0.956133 0.006659 0.000000
vt 0.956133 0.823283 0.000000
vt 0.850568 0.823283 0.000000
#end 88 texture vertices

#begin 24 faces
usemtl material18
f 2/40/40 22/64/64 17/65/65 
usemtl material18
f 2/52/52 1/4/4 20/5/5 
usemtl material18
f 4/8/8 6/9/9 19/51/51 20/42/42 
usemtl material18
f 2/30/30 21/66/66 22/67/67 
usemtl material18
f 2/70/70 3/6/6 1/7/7 
usemtl material18
f 6/18/18 8/19/19 21/33/33 19/43/43 
usemtl material18
f 2/20/20 19/72/72 21/71/71 
usemtl material18
f 23/24/24 9/25/25 10/26/26 8/27/27 
usemtl material18
f 8/28/28 10/29/29 22/31/31 21/32/32 
usemtl material18
f 2/10/10 20/63/63 19/62/62 
usemtl material18
f 9/34/34 11/35/35 12/36/36 10/37/37 
usemtl material18
f 10/38/38 12/39/39 17/22/22 22/23/23 
usemtl material18
f 18/61/61 4/53/53 20/41/41 1/1/1 
usemtl material18
f 11/44/44 13/45/45 14/46/46 12/47/47 
usemtl material18
f 12/48/48 14/49/49 5/13/13 17/21/21 
usemtl material18
f 2/50/50 17/16/16 5/17/17 
usemtl material18
f 13/54/54 15/55/55 16/56/56 14/57/57 
usemtl material18
f 14/58/58 16/59/59 3/11/11 5/12/12 
usemtl material18
f 16/68/68 18/69/69 1/2/2 3/3/3 
usemtl material18
f 2/60/60 5/14/14 3/15/15 
usemtl material18
f 8/76/76 6/75/75 24/74/74 23/73/73 
usemtl material18
f 6/80/80 4/79/79 25/78/78 24/77/77 
usemtl material18
f 4/84/84 18/83/83 7/82/82 25/81/81 
usemtl material18
f 18/88/88 16/87/87 15/86/86 7/85/85 
#end 24 faces
