# XSI Wavefront OBJ Export v3.0
# File Created: Sat Dec 03 20:40:18 2016
# XSI Version: 6.02.2007.0613
mtllib Parking_Block.mtl

o Parking_Block
# Hierarchy (from self to top father)
g Parking_Block

#begin 12 vertices
v -0.894932 0.000000 -0.170463
v 0.894932 0.000000 -0.170463
v -0.894932 0.209050 -0.057854
v 0.894932 0.209050 -0.057854
v -0.894932 0.000000 0.170463
v 0.894932 0.000000 0.170463
v -0.894932 0.209050 0.057854
v 0.894932 0.209050 0.057854
v -0.894932 0.104715 -0.157692
v 0.894932 0.104715 -0.157692
v -0.894932 0.104715 0.157692
v 0.894932 0.104715 0.157692
#end 12 vertices

#begin 40 normals
vn 0.000000 0.121068 -0.992644
vn 0.000000 0.919609 -0.392835
vn 0.000000 0.919609 -0.392835
vn 0.000000 0.121068 -0.992644
vn -0.000000 -1.000000 0.000000
vn -0.000000 -1.000000 0.000000
vn -0.000000 -1.000000 0.000000
vn -0.000000 -1.000000 0.000000
vn -1.000000 0.000000 -0.000000
vn -1.000000 0.000000 -0.000000
vn -1.000000 0.000000 0.000000
vn -1.000000 0.000000 0.000000
vn 1.000000 0.000000 0.000000
vn 1.000000 0.000000 0.000000
vn 1.000000 0.000000 0.000000
vn 1.000000 0.000000 0.000000
vn 0.000000 0.919609 -0.392835
vn 0.000000 0.919609 0.392835
vn 0.000000 0.919609 0.392835
vn 0.000000 0.919609 -0.392835
vn 0.000000 0.121068 0.992644
vn 0.000000 0.121068 0.992644
vn 0.000000 0.919609 0.392835
vn 0.000000 0.919609 0.392835
vn 0.000000 0.428082 -0.903740
vn -1.000000 0.000000 0.000000
vn 0.000000 0.428082 -0.903740
vn 1.000000 0.000000 0.000000
vn -1.000000 0.000000 0.000000
vn 0.000000 0.428082 0.903740
vn 1.000000 0.000000 0.000000
vn 0.000000 0.428082 0.903740
vn 0.000000 0.428082 -0.903740
vn 0.000000 0.428082 -0.903740
vn -1.000000 0.000000 0.000000
vn -1.000000 0.000000 0.000000
vn 1.000000 0.000000 0.000000
vn 1.000000 0.000000 0.000000
vn 0.000000 0.428082 0.903740
vn 0.000000 0.428082 0.903740
#end 40 vertex normals

#begin 40 texture vertices
vt 0.299136 1.000000 0.000000
vt 0.182340 1.000000 0.000000
vt 0.182340 0.000000 0.000000
vt 0.299136 0.000000 0.000000
vt 0.299136 1.000000 0.000000
vt 0.299136 0.000000 0.000000
vt 0.489613 0.000000 0.000000
vt 0.489613 1.000000 0.000000
vt 0.523994 0.858479 0.000000
vt 0.714471 0.858479 0.000000
vt 0.651556 0.975276 0.000000
vt 0.586909 0.975276 0.000000
vt 0.714471 0.858479 0.000000
vt 0.651556 0.975276 0.000000
vt 0.586909 0.975276 0.000000
vt 0.523994 0.858479 0.000000
vt 0.182340 1.000000 0.000000
vt 0.117694 1.000000 0.000000
vt 0.117694 0.000000 0.000000
vt 0.182340 0.000000 0.000000
vt 0.000897 1.000000 0.000000
vt 0.000897 0.000000 0.000000
vt 0.117694 0.000000 0.000000
vt 0.117694 1.000000 0.000000
vt 0.240632 1.000000 0.000000
vt 0.531130 0.916984 0.000000
vt 0.240632 0.000000 0.000000
vt 0.707335 0.916984 0.000000
vt 0.707335 0.916984 0.000000
vt 0.059401 1.000000 0.000000
vt 0.531130 0.916984 0.000000
vt 0.059401 0.000000 0.000000
vt 0.240632 1.000000 0.000000
vt 0.240632 0.000000 0.000000
vt 0.707335 0.916984 0.000000
vt 0.531130 0.916984 0.000000
vt 0.707335 0.916984 0.000000
vt 0.531130 0.916984 0.000000
vt 0.059401 0.000000 0.000000
vt 0.059401 1.000000 0.000000
#end 40 texture vertices

#begin 10 faces
usemtl material18
f 1/1/1 9/25/25 10/27/27 2/4/4 
usemtl material18
f 1/5/5 2/6/6 6/7/7 5/8/8 
usemtl material18
f 1/9/9 5/10/10 11/29/29 9/26/26 
usemtl material18
f 2/13/13 10/28/28 12/31/31 6/16/16 
usemtl material18
f 3/17/17 7/18/18 8/19/19 4/20/20 
usemtl material18
f 5/21/21 6/22/22 12/32/32 11/30/30 
usemtl material18
f 3/2/2 4/3/3 10/34/34 9/33/33 
usemtl material18
f 7/11/11 3/12/12 9/36/36 11/35/35 
usemtl material18
f 4/14/14 8/15/15 12/38/38 10/37/37 
usemtl material18
f 8/23/23 7/24/24 11/40/40 12/39/39 
#end 10 faces
