# XSI Wavefront OBJ Export v3.0
# File Created: Sat Dec 03 20:43:37 2016
# XSI Version: 6.02.2007.0613
mtllib Road_Barrier.mtl

o Road_Barrier
# Hierarchy (from self to top father)
g Road_Barrier

#begin 48 vertices
v -0.520710 0.496795 0.156700
v -0.520710 0.749521 0.088983
v 0.520398 0.770290 0.082369
v 0.526682 0.466295 0.162281
v 0.520247 0.476317 0.214895
v -0.527144 0.506817 0.209314
v -0.527144 0.759543 0.141596
v 0.513965 0.780312 0.134983
v 0.337646 0.000365 0.224525
v 0.327047 0.775896 0.021158
v 0.456619 0.775896 0.021158
v 0.446020 0.000365 0.224525
v 0.446020 0.012190 0.279831
v 0.337646 0.012190 0.279831
v 0.327047 0.787721 0.076463
v 0.456619 0.787721 0.076463
v 0.519785 0.477894 -0.117718
v 0.519785 0.766981 -0.040257
v -0.520861 0.770290 -0.042300
v -0.527144 0.466295 -0.122212
v -0.520710 0.476317 -0.174826
v 0.527144 0.489358 -0.177901
v 0.527144 0.778445 -0.100441
v -0.514427 0.780312 -0.094914
v -0.307090 0.000365 -0.184456
v -0.307093 0.775896 0.018911
v -0.436664 0.775896 0.018911
v -0.415463 0.000365 -0.184456
v -0.415463 0.012190 -0.239762
v -0.307090 0.012190 -0.239762
v -0.307093 0.787721 -0.036394
v -0.436664 0.787721 -0.036394
v -0.425509 0.000365 0.224525
v -0.418476 0.757805 0.021158
v -0.308286 0.757805 0.021158
v -0.298073 0.000365 0.224525
v -0.298073 0.012190 0.279831
v -0.425509 0.012190 0.279831
v -0.418476 0.769630 0.076463
v -0.308286 0.769630 0.076463
v 0.453885 0.000365 -0.183353
v 0.446852 0.757805 0.020014
v 0.336662 0.757805 0.020014
v 0.326448 0.000365 -0.183353
v 0.326448 0.012190 -0.238659
v 0.453885 0.012190 -0.238659
v 0.446852 0.769630 -0.035291
v 0.336662 0.769630 -0.035291
#end 48 vertices

#begin 144 normals
vn -0.001673 -0.256335 -0.966586
vn -0.001673 -0.256335 -0.966586
vn -0.001673 -0.256335 -0.966586
vn -0.001673 -0.256335 -0.966586
vn -0.029590 -0.982566 0.183543
vn -0.029590 -0.982566 0.183543
vn -0.029590 -0.982566 0.183543
vn -0.029590 -0.982566 0.183543
vn -0.992823 -0.030952 -0.115516
vn -0.992823 -0.030952 -0.115516
vn -0.992823 -0.030952 -0.115516
vn -0.992823 -0.030952 -0.115516
vn 0.992470 0.049917 0.111858
vn 0.992470 0.049917 0.111858
vn 0.992470 0.049917 0.111858
vn 0.992470 0.049917 0.111858
vn -0.020786 0.981655 -0.189530
vn -0.020786 0.981655 -0.189530
vn -0.020786 0.981655 -0.189530
vn -0.020786 0.981655 -0.189530
vn 0.001672 0.256336 0.966586
vn 0.001672 0.256336 0.966586
vn 0.001672 0.256336 0.966586
vn 0.001672 0.256336 0.966586
vn 0.000000 -0.253653 -0.967295
vn 0.000000 -0.253653 -0.967295
vn 0.000000 -0.253653 -0.967295
vn 0.000000 -0.253653 -0.967295
vn 0.000000 -0.977897 0.209086
vn 0.000000 -0.977897 0.209086
vn 0.000000 -0.977897 0.209086
vn 0.000000 -0.977897 0.209086
vn -0.999912 -0.012940 0.002767
vn -0.999912 -0.012940 0.002767
vn -0.999912 -0.012940 0.002767
vn -0.999912 -0.012940 0.002767
vn 0.999912 -0.012940 0.002767
vn 0.999912 -0.012940 0.002767
vn 0.999912 -0.012940 0.002767
vn 0.999912 -0.012940 0.002767
vn 0.000000 0.977897 -0.209088
vn 0.000000 0.977897 -0.209088
vn 0.000000 0.977897 -0.209088
vn 0.000000 0.977897 -0.209088
vn 0.000000 0.253654 0.967295
vn 0.000000 0.253654 0.967295
vn 0.000000 0.253654 0.967295
vn 0.000000 0.253654 0.967295
vn -0.002008 -0.256451 0.966555
vn -0.002008 -0.256451 0.966555
vn -0.002008 -0.256451 0.966555
vn -0.002008 -0.256451 0.966555
vn 0.011683 -0.982532 -0.185727
vn 0.011683 -0.982532 -0.185727
vn 0.011683 -0.982532 -0.185727
vn 0.011683 -0.982532 -0.185727
vn 0.992823 -0.030952 0.115516
vn 0.992823 -0.030952 0.115516
vn 0.992823 -0.030952 0.115516
vn 0.992823 -0.030952 0.115516
vn -0.992470 0.049917 -0.111858
vn -0.992470 0.049917 -0.111858
vn -0.992470 0.049917 -0.111858
vn -0.992470 0.049917 -0.111858
vn 0.002755 0.982272 0.187442
vn 0.002755 0.982272 0.187442
vn 0.002755 0.982272 0.187442
vn 0.002755 0.982272 0.187442
vn -0.005351 0.256521 -0.966524
vn -0.005351 0.256521 -0.966524
vn -0.005351 0.256521 -0.966524
vn -0.005351 0.256521 -0.966524
vn 0.000000 -0.253653 0.967295
vn 0.000000 -0.253653 0.967295
vn 0.000000 -0.253653 0.967295
vn 0.000000 -0.253653 0.967295
vn 0.000000 -0.977897 -0.209086
vn 0.000000 -0.977897 -0.209086
vn 0.000000 -0.977897 -0.209086
vn 0.000000 -0.977897 -0.209086
vn 1.000000 0.000004 0.000001
vn 1.000000 0.000004 0.000001
vn 1.000000 0.000004 0.000001
vn 1.000000 0.000004 0.000001
vn -0.999650 -0.025877 -0.005533
vn -0.999650 -0.025877 -0.005533
vn -0.999650 -0.025877 -0.005533
vn -0.999650 -0.025877 -0.005533
vn 0.000000 0.977897 0.209088
vn 0.000000 0.977897 0.209088
vn 0.000000 0.977897 0.209088
vn 0.000000 0.977897 0.209088
vn 0.000000 0.253654 -0.967295
vn 0.000000 0.253654 -0.967295
vn 0.000000 0.253654 -0.967295
vn 0.000000 0.253654 -0.967295
vn 0.000000 -0.259309 -0.965794
vn 0.000000 -0.259309 -0.965794
vn 0.000000 -0.259309 -0.965794
vn 0.000000 -0.259309 -0.965794
vn 0.000000 -0.977897 0.209086
vn 0.000000 -0.977897 0.209086
vn 0.000000 -0.977897 0.209086
vn 0.000000 -0.977897 0.209086
vn -0.999960 0.008781 -0.001878
vn -0.999960 0.008781 -0.001878
vn -0.999960 0.008781 -0.001878
vn -0.999960 0.008781 -0.001878
vn 0.999915 0.012751 -0.002726
vn 0.999915 0.012751 -0.002726
vn 0.999915 0.012751 -0.002726
vn 0.999915 0.012751 -0.002726
vn 0.000000 0.977897 -0.209088
vn 0.000000 0.977897 -0.209088
vn 0.000000 0.977897 -0.209088
vn 0.000000 0.977897 -0.209088
vn 0.000000 0.259310 0.965794
vn 0.000000 0.259310 0.965794
vn 0.000000 0.259310 0.965794
vn 0.000000 0.259310 0.965794
vn 0.000000 -0.259309 0.965794
vn 0.000000 -0.259309 0.965794
vn 0.000000 -0.259309 0.965794
vn 0.000000 -0.259309 0.965794
vn 0.000000 -0.977897 -0.209086
vn 0.000000 -0.977897 -0.209086
vn 0.000000 -0.977897 -0.209086
vn 0.000000 -0.977897 -0.209086
vn 0.999960 0.008781 0.001878
vn 0.999960 0.008781 0.001878
vn 0.999960 0.008781 0.001878
vn 0.999960 0.008781 0.001878
vn -0.999915 0.012751 0.002726
vn -0.999915 0.012751 0.002726
vn -0.999915 0.012751 0.002726
vn -0.999915 0.012751 0.002726
vn 0.000000 0.977897 0.209088
vn 0.000000 0.977897 0.209088
vn 0.000000 0.977897 0.209088
vn 0.000000 0.977897 0.209088
vn 0.000000 0.259310 -0.965794
vn 0.000000 0.259310 -0.965794
vn 0.000000 0.259310 -0.965794
vn 0.000000 0.259310 -0.965794
#end 144 vertex normals

#begin 144 texture vertices
vt 0.053774 0.599047 0.000000
vt 0.053774 0.357453 0.000000
vt 0.932630 0.357453 0.000000
vt 0.932630 0.599047 0.000000
vt 0.053774 0.599047 0.000000
vt 0.932630 0.599047 0.000000
vt 0.932630 0.676779 0.000000
vt 0.053774 0.676779 0.000000
vt 0.003663 0.676779 0.000000
vt 0.053774 0.676779 0.000000
vt 0.053774 0.919347 0.000000
vt 0.003663 0.919347 0.000000
vt 0.992223 0.676779 0.000000
vt 0.992223 0.919347 0.000000
vt 0.932630 0.919347 0.000000
vt 0.932630 0.676779 0.000000
vt 0.053774 0.994110 0.000000
vt 0.053774 0.919347 0.000000
vt 0.932630 0.919347 0.000000
vt 0.932630 0.994919 0.000000
vt 0.053774 0.676779 0.000000
vt 0.932630 0.676779 0.000000
vt 0.932630 0.919347 0.000000
vt 0.053774 0.919347 0.000000
vt 0.738846 0.333501 0.000000
vt 0.053766 0.333501 0.000000
vt 0.053766 0.231872 0.000000
vt 0.738846 0.231872 0.000000
vt 0.787826 0.070493 0.000000
vt 0.787826 0.172161 0.000000
vt 0.738846 0.172161 0.000000
vt 0.738846 0.070493 0.000000
vt 0.738846 0.010789 0.000000
vt 0.738846 0.070493 0.000000
vt 0.053766 0.070493 0.000000
vt 0.053766 0.010789 0.000000
vt 0.738846 0.231872 0.000000
vt 0.053766 0.231872 0.000000
vt 0.053766 0.172161 0.000000
vt 0.738846 0.172161 0.000000
vt 0.006043 0.070493 0.000000
vt 0.053766 0.070493 0.000000
vt 0.053766 0.172161 0.000000
vt 0.006043 0.172161 0.000000
vt 0.738846 0.070493 0.000000
vt 0.738846 0.172161 0.000000
vt 0.053766 0.172161 0.000000
vt 0.053766 0.070493 0.000000
vt 0.053774 0.599047 0.000000
vt 0.053774 0.357453 0.000000
vt 0.932630 0.357453 0.000000
vt 0.932630 0.599047 0.000000
vt 0.053774 0.599047 0.000000
vt 0.932630 0.599047 0.000000
vt 0.932630 0.676779 0.000000
vt 0.053774 0.676779 0.000000
vt 0.003663 0.676779 0.000000
vt 0.053774 0.676779 0.000000
vt 0.053774 0.919347 0.000000
vt 0.003663 0.919347 0.000000
vt 0.992223 0.676779 0.000000
vt 0.992223 0.919347 0.000000
vt 0.932630 0.919347 0.000000
vt 0.932630 0.676779 0.000000
vt 0.053774 0.994110 0.000000
vt 0.053774 0.919347 0.000000
vt 0.932630 0.919347 0.000000
vt 0.932630 0.994919 0.000000
vt 0.053774 0.676779 0.000000
vt 0.932630 0.676779 0.000000
vt 0.932630 0.919347 0.000000
vt 0.053774 0.919347 0.000000
vt 0.738846 0.333501 0.000000
vt 0.053766 0.333501 0.000000
vt 0.053766 0.231872 0.000000
vt 0.738846 0.231872 0.000000
vt 0.787826 0.070493 0.000000
vt 0.787826 0.172161 0.000000
vt 0.738846 0.172161 0.000000
vt 0.738846 0.070493 0.000000
vt 0.738846 0.010789 0.000000
vt 0.738846 0.070493 0.000000
vt 0.053766 0.070493 0.000000
vt 0.053766 0.010789 0.000000
vt 0.738846 0.231872 0.000000
vt 0.053766 0.231872 0.000000
vt 0.053766 0.172161 0.000000
vt 0.738846 0.172161 0.000000
vt 0.006043 0.070493 0.000000
vt 0.053766 0.070493 0.000000
vt 0.053766 0.172161 0.000000
vt 0.006043 0.172161 0.000000
vt 0.738846 0.070493 0.000000
vt 0.738846 0.172161 0.000000
vt 0.053766 0.172161 0.000000
vt 0.053766 0.070493 0.000000
vt 0.738846 0.333501 0.000000
vt 0.053766 0.333501 0.000000
vt 0.053766 0.231872 0.000000
vt 0.738846 0.231872 0.000000
vt 0.787826 0.070493 0.000000
vt 0.787826 0.172161 0.000000
vt 0.738846 0.172161 0.000000
vt 0.738846 0.070493 0.000000
vt 0.738846 0.010789 0.000000
vt 0.738846 0.070493 0.000000
vt 0.053766 0.070493 0.000000
vt 0.053766 0.010789 0.000000
vt 0.738846 0.231872 0.000000
vt 0.053766 0.231872 0.000000
vt 0.053766 0.172161 0.000000
vt 0.738846 0.172161 0.000000
vt 0.006043 0.070493 0.000000
vt 0.053766 0.070493 0.000000
vt 0.053766 0.172161 0.000000
vt 0.006043 0.172161 0.000000
vt 0.738846 0.070493 0.000000
vt 0.738846 0.172161 0.000000
vt 0.053766 0.172161 0.000000
vt 0.053766 0.070493 0.000000
vt 0.738846 0.333501 0.000000
vt 0.053766 0.333501 0.000000
vt 0.053766 0.231872 0.000000
vt 0.738846 0.231872 0.000000
vt 0.787826 0.070493 0.000000
vt 0.787826 0.172161 0.000000
vt 0.738846 0.172161 0.000000
vt 0.738846 0.070493 0.000000
vt 0.738846 0.010789 0.000000
vt 0.738846 0.070493 0.000000
vt 0.053766 0.070493 0.000000
vt 0.053766 0.010789 0.000000
vt 0.738846 0.231872 0.000000
vt 0.053766 0.231872 0.000000
vt 0.053766 0.172161 0.000000
vt 0.738846 0.172161 0.000000
vt 0.006043 0.070493 0.000000
vt 0.053766 0.070493 0.000000
vt 0.053766 0.172161 0.000000
vt 0.006043 0.172161 0.000000
vt 0.738846 0.070493 0.000000
vt 0.738846 0.172161 0.000000
vt 0.053766 0.172161 0.000000
vt 0.053766 0.070493 0.000000
#end 144 texture vertices

#begin 36 faces
usemtl material9
f 1/1/1 2/2/2 3/3/3 4/4/4 
usemtl material9
f 1/5/5 4/6/6 5/7/7 6/8/8 
usemtl material9
f 1/9/9 6/10/10 7/11/11 2/12/12 
usemtl material9
f 4/13/13 3/14/14 8/15/15 5/16/16 
usemtl material9
f 2/17/17 7/18/18 8/19/19 3/20/20 
usemtl material9
f 6/21/21 5/22/22 8/23/23 7/24/24 
usemtl material9
f 9/25/25 10/26/26 11/27/27 12/28/28 
usemtl material9
f 9/29/29 12/30/30 13/31/31 14/32/32 
usemtl material9
f 9/33/33 14/34/34 15/35/35 10/36/36 
usemtl material9
f 12/37/37 11/38/38 16/39/39 13/40/40 
usemtl material9
f 10/41/41 15/42/42 16/43/43 11/44/44 
usemtl material9
f 14/45/45 13/46/46 16/47/47 15/48/48 
usemtl material9
f 17/49/49 18/50/50 19/51/51 20/52/52 
usemtl material9
f 17/53/53 20/54/54 21/55/55 22/56/56 
usemtl material9
f 17/57/57 22/58/58 23/59/59 18/60/60 
usemtl material9
f 20/61/61 19/62/62 24/63/63 21/64/64 
usemtl material9
f 18/65/65 23/66/66 24/67/67 19/68/68 
usemtl material9
f 22/69/69 21/70/70 24/71/71 23/72/72 
usemtl material9
f 25/73/73 26/74/74 27/75/75 28/76/76 
usemtl material9
f 25/77/77 28/78/78 29/79/79 30/80/80 
usemtl material9
f 25/81/81 30/82/82 31/83/83 26/84/84 
usemtl material9
f 28/85/85 27/86/86 32/87/87 29/88/88 
usemtl material9
f 26/89/89 31/90/90 32/91/91 27/92/92 
usemtl material9
f 30/93/93 29/94/94 32/95/95 31/96/96 
usemtl material9
f 33/97/97 34/98/98 35/99/99 36/100/100 
usemtl material9
f 33/101/101 36/102/102 37/103/103 38/104/104 
usemtl material9
f 33/105/105 38/106/106 39/107/107 34/108/108 
usemtl material9
f 36/109/109 35/110/110 40/111/111 37/112/112 
usemtl material9
f 34/113/113 39/114/114 40/115/115 35/116/116 
usemtl material9
f 38/117/117 37/118/118 40/119/119 39/120/120 
usemtl material9
f 41/121/121 42/122/122 43/123/123 44/124/124 
usemtl material9
f 41/125/125 44/126/126 45/127/127 46/128/128 
usemtl material9
f 41/129/129 46/130/130 47/131/131 42/132/132 
usemtl material9
f 44/133/133 43/134/134 48/135/135 45/136/136 
usemtl material9
f 42/137/137 47/138/138 48/139/139 43/140/140 
usemtl material9
f 46/141/141 45/142/142 48/143/143 47/144/144 
#end 36 faces
