# This file uses centimeters as units for non-parametric coordinates.

mtllib Pyramid.mtl
g default
v -6.782401 -0.013478 6.782401
v 6.782401 -0.013478 6.782401
v 0.000000 6.975116 0.000000
v -6.782401 -0.013478 -6.782401
v 6.782401 -0.013478 -6.782401
vt 0.000000 0.436230
vt 0.507947 0.436230
vt 0.507947 0.944177
vt 0.000000 0.944177
vt 0.000000 0.080697
vt 0.512956 0.372624
vt 0.923282 0.658392
vt 0.811528 0.001852
vt 0.513376 1.000000
vt 0.513376 0.428464
vt 0.398041 0.490839
vt 0.103049 0.714232
vt 0.512956 0.944160
vt 0.493477 0.000000
vt 0.413502 0.411978
vt 0.906982 0.492694
vn 0.000000 0.696441 0.717614
vn 0.000000 0.696441 0.717614
vn 0.000000 0.696441 0.717614
vn 0.000000 0.696441 -0.717614
vn 0.000000 0.696441 -0.717614
vn 0.000000 0.696441 -0.717614
vn 0.000000 -1.000000 0.000000
vn 0.000000 -1.000000 0.000000
vn 0.000000 -1.000000 0.000000
vn 0.000000 -1.000000 0.000000
vn 0.717614 0.696441 0.000000
vn 0.717614 0.696441 0.000000
vn 0.717614 0.696441 0.000000
vn -0.717614 0.696441 0.000000
vn -0.717614 0.696441 0.000000
vn -0.717614 0.696441 0.000000
s off
g pCube1
usemtl initialShadingGroup
f 1/11/1 2/5/2 3/14/3
f 3/16/4 5/15/5 4/8/6
f 4/1/7 5/2/8 2/3/9 1/4/10
f 2/13/11 5/6/12 3/7/13
f 4/10/14 1/9/15 3/12/16
g default
v -6.782400 -0.013478 6.782400
v 6.782400 -0.013478 6.782400
v 0.000000 6.975120 0.000000
v 6.782400 -0.013478 -6.782400
v -6.782400 -0.013478 -6.782400
vt 0.509943 0.788376
vt 0.512693 0.280437
vt 0.875986 0.536382
vt 0.876516 0.536218
vt 0.509403 0.786662
vt 0.514289 0.278758
vt 0.000000 0.944177
vt 0.000000 0.436230
vt 0.507947 0.436230
vt 0.507947 0.944177
vt 0.510568 0.787465
vt 0.510881 0.279518
vt 0.875397 0.533716
vt 0.511623 0.786026
vt 0.511456 0.278079
vt 0.876212 0.531932
vn 0.000000 0.696441 0.717614
vn 0.000000 0.696441 0.717614
vn 0.000000 0.696441 0.717614
vn 0.000000 0.696441 -0.717614
vn 0.000000 0.696441 -0.717614
vn 0.000000 0.696441 -0.717614
vn 0.000000 -1.000000 0.000000
vn 0.000000 -1.000000 0.000000
vn 0.000000 -1.000000 0.000000
vn 0.000000 -1.000000 0.000000
vn 0.000000 -1.000000 0.000000
vn 0.000000 -1.000000 0.000000
vn 0.717614 0.696441 0.000000
vn 0.717614 0.696441 0.000000
vn 0.717614 0.696441 0.000000
vn -0.717614 0.696441 0.000000
vn -0.717614 0.696441 0.000000
vn -0.717614 0.696441 0.000000
s off
g pyramid2:gpCube1_pCube1
usemtl pyramid2:initialShadingGroup
f 6/17/17 7/18/18 8/19/19
f 8/20/20 9/21/21 10/22/22
f 6/23/23 10/24/24 9/25/25
f 9/25/26 7/26/27 6/23/28
f 7/27/29 9/28/30 8/29/31
f 10/30/32 6/31/33 8/32/34
