# File produced by Open Asset Import Library (http://www.assimp.sf.net)
# (assimp v3.1.35440475)

mtllib GPS.mtl

# 24 vertex positions
v  -1.14806 -0.810891 -0.195167
v  -1.14806 -0.810891 0.195167
v  -1.19684 -0.762105 0.195167
v  -1.19684 -0.762105 -0.195167
v  1.14806 -0.762105 0.243952
v  -1.14806 -0.762105 0.243952
v  1.14806 -0.810891 0.195167
v  -1.19684 0.762105 0.195167
v  -1.14806 0.762105 0.243952
v  1.19684 -0.762105 -0.195167
v  1.19684 -0.762105 0.195167
v  1.14806 -0.810891 -0.195167
v  1.14806 0.762105 0.243952
v  1.19684 0.762105 0.195167
v  -1.19684 0.762105 -0.195167
v  -1.14806 0.810891 0.195167
v  -1.14806 0.810891 -0.195167
v  1.14806 0.810891 0.195167
v  1.14806 0.810891 -0.195167
v  1.19684 0.762105 -0.195167
v  -1.14806 0.762105 -0.243952
v  -1.14806 -0.762105 -0.243952
v  1.14806 0.762105 -0.243952
v  1.14806 -0.762105 -0.243952

# 48 UV coordinates
vt 0.89479 0.545557 0
vt 0.986541 0.545557 0
vt 0.986541 0.557025 0
vt 0.89479 0.557025 0
vt 0.116677 0.00185 0
vt 0.116677 0.541566 0
vt 0.10521 0.541566 0
vt 0.10521 0.00185 0
vt 0.986541 0.9153 0
vt 0.998008 0.557025 0
vt 0.998008 0.9153 0
vt 0.86572 0.557025 0
vt 0.77397 0.557025 0
vt 0.77397 0.545557 0
vt 0.86572 0.545557 0
vt 0.762503 0.9153 0
vt 0.762503 0.557025 0
vt 0.77397 0.9153 0
vt 0.89479 0.9153 0
vt 0.986541 0.926767 0
vt 0.89479 0.926767 0
vt 0.134489 0.00185 0
vt 0.134489 0.541566 0
vt 0.123022 0.541566 0
vt 0.123022 0.00185 0
vt 0.86572 0.926767 0
vt 0.77397 0.926767 0
vt 0.86572 0.9153 0
vt 0.883323 0.9153 0
vt 0.883323 0.557025 0
vt 0.237707 0.00185 0
vt 0.237707 0.541566 0
vt 0.22624 0.541566 0
vt 0.22624 0.00185 0
vt 0.877188 0.557025 0
vt 0.877188 0.9153 0
vt 0.013459 0.00185 0
vt 0.013459 0.541566 0
vt 0.001992 0.541566 0
vt 0.001992 0.00185 0
vt 0.602132 0.541566 0
vt 0.243857 0.541566 0
vt 0.243857 0.00185 0
vt 0.602132 0.00185 0
vt 0.966586 0.541566 0
vt 0.608311 0.541566 0
vt 0.608311 0.00185 0
vt 0.966586 0.00185 0

# 24 vertex normals
vn -0.019175 -0.993851 -0.109052
vn -0.019175 -0.993851 0.109052
vn -0.9937 -0.028602 0.108365
vn -0.9937 -0.028602 -0.108365
vn 0.02037 -0.030577 0.999325
vn -0.02037 -0.030577 0.999325
vn 0.019175 -0.993851 0.109052
vn -0.9937 0.028602 0.108365
vn -0.02037 0.030577 0.999325
vn 0.9937 -0.028602 -0.108365
vn 0.9937 -0.028602 0.108365
vn 0.019175 -0.993851 -0.109052
vn 0.02037 0.030577 0.999325
vn 0.9937 0.028602 0.108365
vn -0.9937 0.028602 -0.108365
vn -0.019175 0.993851 0.109052
vn -0.019175 0.993851 -0.109052
vn 0.019175 0.993851 0.109052
vn 0.019175 0.993851 -0.109052
vn 0.9937 0.028602 -0.108365
vn -0.02037 0.030577 -0.999325
vn -0.02037 -0.030577 -0.999325
vn 0.02037 0.030577 -0.999325
vn 0.02037 -0.030577 -0.999325

# Mesh 'g pCube1_pCube1' with 44 faces
g g pCube1_pCube1
usemtl initialShadingGroup
f  1/1/1 2/2/2 3/3/3
f  3/3/3 4/4/4 1/1/1
f  5/5/5 6/6/6 2/7/2
f  2/7/2 7/8/7 5/5/5
f  8/9/8 3/3/3 6/10/6
f  6/10/6 9/11/9 8/9/8
f  10/12/10 11/13/11 7/14/7
f  7/14/7 12/15/12 10/12/10
f  13/16/13 5/17/5 11/13/11
f  11/13/11 14/18/14 13/16/13
f  15/19/15 8/9/8 16/20/16
f  16/20/16 17/21/17 15/19/15
f  18/22/18 16/23/16 9/24/9
f  9/24/9 13/25/13 18/22/18
f  19/26/19 18/27/18 14/18/14
f  14/18/14 20/28/20 19/26/19
f  4/4/4 15/19/15 21/29/21
f  21/29/21 22/30/22 4/4/4
f  23/31/23 21/32/21 17/33/17
f  17/33/17 19/34/19 23/31/23
f  24/35/24 23/36/23 20/28/20
f  20/28/20 10/12/10 24/35/24
f  12/37/12 1/38/1 22/39/22
f  22/39/22 24/40/24 12/37/12
f  9/41/9 6/42/6 5/43/5
f  5/43/5 13/44/13 9/41/9
f  17/33/17 16/23/16 18/22/18
f  18/22/18 19/34/19 17/33/17
f  22/45/22 21/46/21 23/47/23
f  23/47/23 24/48/24 22/45/22
f  2/7/2 1/38/1 12/37/12
f  12/37/12 7/8/7 2/7/2
f  14/18/14 11/13/11 10/12/10
f  10/12/10 20/28/20 14/18/14
f  15/19/15 4/4/4 3/3/3
f  3/3/3 8/9/8 15/19/15
f  2/2/2 6/10/6 3/3/3
f  11/13/11 5/17/5 7/14/7
f  8/9/8 9/11/9 16/20/16
f  18/27/18 13/16/13 14/18/14
f  15/19/15 17/21/17 21/29/21
f  23/36/23 19/26/19 20/28/20
f  4/4/4 22/30/22 1/1/1
f  12/15/12 24/35/24 10/12/10

