# File produced by Open Asset Import Library (http://www.assimp.sf.net)
# (assimp v3.1.35440475)

mtllib keyboard_final.mtl

# 56 vertex positions
v  -5.04273 0.129307 1.76696
v  -5.04273 -0.240764 1.73531
v  -2.77741 -0.240764 1.73531
v  -2.77741 0.129307 1.76696
v  -5.04273 0.428806 -1.73532
v  -5.04273 0.408084 -1.493
v  -2.77741 0.408084 -1.493
v  -2.77741 0.428806 -1.73532
v  -5.04273 0.058734 -1.76696
v  -2.77741 0.058734 -1.76696
v  -5.04273 0.038013 -1.52464
v  -2.77741 0.038013 -1.52464
v  5.04273 0.428806 -1.73532
v  5.04273 0.408084 -1.493
v  5.04273 0.038013 -1.52464
v  5.04273 0.058734 -1.76696
v  2.11166 0.038013 -1.52464
v  2.11166 0.058734 -1.76696
v  2.77741 0.058734 -1.76696
v  2.77741 0.038013 -1.52464
v  2.77741 0.129307 1.76696
v  2.11166 0.129307 1.76696
v  2.11166 -0.240764 1.73531
v  2.77741 -0.240764 1.73531
v  2.77741 0.428806 -1.73532
v  2.11166 0.428806 -1.73532
v  2.11166 0.408084 -1.493
v  2.77741 0.408084 -1.493
v  -2.11166 0.038013 -1.52464
v  -2.11166 0.058734 -1.76696
v  -2.11166 0.129307 1.76696
v  -2.11166 -0.240764 1.73531
v  -2.11166 0.428806 -1.73532
v  -2.11166 0.408084 -1.493
v  5.04273 0.129307 1.76696
v  5.04273 -0.240764 1.73531
v  -2.11166 0.018255 -1.2936
v  2.11166 0.018255 -1.2936
v  -2.77741 0.018255 -1.2936
v  -5.04273 0.018255 -1.2936
v  -5.04273 0.388326 -1.26196
v  -2.77741 0.388326 -1.26196
v  -2.11166 0.388326 -1.26196
v  2.11166 0.388326 -1.26196
v  2.77741 0.388326 -1.26196
v  5.04273 0.388326 -1.26196
v  5.04273 0.018255 -1.2936
v  2.77741 0.018255 -1.2936
v  2.11166 -0.248887 -1.4213
v  2.11166 -0.249261 -1.65234
v  2.77741 -0.249261 -1.65234
v  2.77741 -0.248887 -1.4213
v  -2.77741 -0.248887 -1.4213
v  -2.77741 -0.249261 -1.65234
v  -2.11166 -0.249261 -1.65234
v  -2.11166 -0.248887 -1.4213

# 132 UV coordinates
vt 0 0.337891 0
vt 0 0.302101 0
vt 0.209911 0.302101 0
vt 0.209911 0.337891 0
vt 0.271637 0.989728 0
vt 0.271637 0.968652 0
vt 0.43283 0.968652 0
vt 0.43283 0.989728 0
vt 0 0.39237 0
vt 0 0.358922 0
vt 0.224613 0.358922 0
vt 0.224613 0.39237 0
vt 0.310287 0.426403 0
vt 0.310287 0.408407 0
vt 0.462645 0.408407 0
vt 0.462645 0.426403 0
vt 0.914202 0.143351 0
vt 0.886162 0.141016 0
vt 0.885931 0.03893 0
vt 0.913896 0.03579 0
vt 0.462604 0.03579 0
vt 0.461369 0.14189 0
vt 0.433129 0.137902 0
vt 0.434191 0.039018 0
vt 0 0.043626 0
vt 0 0.03579 0
vt 0.019496 0.03579 0
vt 0.019496 0.043626 0
vt 0.724635 0.337891 0
vt 0.662944 0.337891 0
vt 0.662944 0.302101 0
vt 0.724635 0.302101 0
vt 0.828093 0.989728 0
vt 0.78072 0.989728 0
vt 0.78072 0.968652 0
vt 0.828093 0.968652 0
vt 0.775388 0.39237 0
vt 0.709377 0.39237 0
vt 0.709377 0.358922 0
vt 0.775388 0.358922 0
vt 0.507421 0.426403 0
vt 0.507421 0.408407 0
vt 0.791468 0.408407 0
vt 0.791468 0.426403 0
vt 0.2716 0.337891 0
vt 0.2716 0.302101 0
vt 0.480203 0.989728 0
vt 0.480203 0.968652 0
vt 0.290623 0.39237 0
vt 0.290623 0.358922 0
vt 0.836244 0.426403 0
vt 0.836244 0.408407 0
vt 0.988602 0.408407 0
vt 0.988602 0.426403 0
vt 0.934545 0.337891 0
vt 0.934545 0.302101 0
vt 0.989286 0.989728 0
vt 0.989286 0.968652 0
vt 1 0.39237 0
vt 1 0.358922 0
vt 0.019866 0.043626 0
vt 0.019866 0.03579 0
vt 0.039362 0.03579 0
vt 0.039362 0.043626 0
vt 0.507421 0.668509 0
vt 0.507421 0.443561 0
vt 0.791468 0.443561 0
vt 0.791468 0.668509 0
vt 0.462645 0.668509 0
vt 0.462645 0.443561 0
vt 0.310287 0.668509 0
vt 0.310287 0.443561 0
vt 0.000804 0.053085 0
vt 0.408947 0.048855 0
vt 0.407941 0.127643 0
vt 0 0.113003 0
vt 0.271637 0.948558 0
vt 0.271637 0.685118 0
vt 0.43283 0.685118 0
vt 0.43283 0.948558 0
vt 0.480203 0.685118 0
vt 0.480203 0.948558 0
vt 0.78072 0.685118 0
vt 0.78072 0.948558 0
vt 0.828093 0.685118 0
vt 0.828093 0.948558 0
vt 0.989286 0.685118 0
vt 0.989286 0.948558 0
vt 0.46341 0.126181 0
vt 0.462652 0.066047 0
vt 0.861202 0.049266 0
vt 0.861511 0.130929 0
vt 0.836244 0.668509 0
vt 0.836244 0.443561 0
vt 0.988602 0.443561 0
vt 0.988602 0.668509 0
vt 0.934574 0.002422 0
vt 0.934574 0 0
vt 0.985744 0 0
vt 0.985744 0.002422 0
vt 0.461769 0.129255 0
vt 0.461769 0.126756 0
vt 0.511349 0.126756 0
vt 0.511349 0.129255 0
vt 0.350962 0.162603 0
vt 0.350962 0.127404 0
vt 0.401171 0.127404 0
vt 0.401171 0.162603 0
vt 0.999899 0.105613 0
vt 0.977671 0.1408 0
vt 0.92751 0.1408 0
vt 0.950109 0.107988 0
vt 0.985744 0.035873 0
vt 0.934574 0.035873 0
vt 0.964056 0.038166 0
vt 0.986655 0.070978 0
vt 0.936494 0.070978 0
vt 0.914267 0.03579 0
vt 0.511654 0.163668 0
vt 0.511654 0.127341 0
vt 0.560303 0.127341 0
vt 0.560303 0.163668 0
vt 0.999857 0.070307 0
vt 0.97832 0.106623 0
vt 0.929718 0.106623 0
vt 0.951614 0.072759 0
vt 0.511349 0.163779 0
vt 0.461769 0.163779 0
vt 0.329012 0.125547 0
vt 0.350909 0.159411 0
vt 0.302306 0.159411 0
vt 0.280769 0.123095 0

# 14 vertex normals
vn 0 -0.085206 0.996363
vn 0 0.996364 0.085204
vn 0 0.996363 0.085204
vn 0 0.085203 -0.996364
vn 0 -0.996363 -0.085204
vn 0 -0.996364 -0.085204
vn 1 0 0
vn -1 -0 -0
vn -1 -1e-06 -0
vn 1 -1e-06 -0
vn 0 -0.999999 0.001618
vn 0 0.406185 -0.913791
vn 1 1e-06 0
vn 0 -0.431268 0.902224

# Mesh 'g pCube1_pCube1' with 108 faces
g g pCube1_pCube1
usemtl lambert2SG
f  1/1/1 2/2/1 3/3/1
f  3/3/1 4/4/1 1/1/1
f  5/5/2 6/6/3 7/7/3
f  7/7/3 8/8/2 5/5/2
f  9/9/4 5/10/4 8/11/4
f  8/11/4 10/12/4 9/9/4
f  11/13/5 9/14/6 10/15/6
f  10/15/6 12/16/5 11/13/5
f  13/17/7 14/18/7 15/19/7
f  15/19/7 16/20/7 13/17/7
f  5/21/8 9/22/8 11/23/8
f  11/23/8 6/24/8 5/21/8
f  17/25/6 18/26/6 19/27/6
f  19/27/6 20/28/6 17/25/6
f  21/29/1 22/30/1 23/31/1
f  23/31/1 24/32/1 21/29/1
f  25/33/2 26/34/2 27/35/3
f  27/35/3 28/36/3 25/33/2
f  19/37/4 18/38/4 26/39/4
f  26/39/4 25/40/4 19/37/4
f  29/41/5 30/42/6 18/43/6
f  18/43/6 17/44/5 29/41/5
f  22/30/1 31/45/1 32/46/1
f  32/46/1 23/31/1 22/30/1
f  26/34/2 33/47/2 34/48/3
f  34/48/3 27/35/3 26/34/2
f  18/38/4 30/49/4 33/50/4
f  33/50/4 26/39/4 18/38/4
f  20/51/5 19/52/6 16/53/6
f  16/53/6 15/54/5 20/51/5
f  35/55/1 21/29/1 24/32/1
f  24/32/1 36/56/1 35/55/1
f  13/57/2 25/33/2 28/36/3
f  28/36/3 14/58/3 13/57/2
f  16/59/4 19/37/4 25/40/4
f  25/40/4 13/60/4 16/59/4
f  12/61/6 10/62/6 30/63/6
f  30/63/6 29/64/6 12/61/6
f  31/45/1 4/4/1 3/3/1
f  3/3/1 32/46/1 31/45/1
f  33/47/2 8/8/2 7/7/3
f  7/7/3 34/48/3 33/47/2
f  30/49/4 10/12/4 8/11/4
f  8/11/4 33/50/4 30/49/4
f  32/65/5 37/66/5 38/67/5
f  38/67/5 23/68/5 32/65/5
f  3/69/5 39/70/5 37/66/5
f  37/66/5 32/65/5 3/69/5
f  2/71/5 40/72/5 39/70/5
f  39/70/5 3/69/5 2/71/5
f  1/73/9 41/74/9 40/75/9
f  40/75/9 2/76/9 1/73/9
f  41/77/3 1/78/3 4/79/3
f  4/79/3 42/80/3 41/77/3
f  31/81/3 43/82/3 42/80/3
f  42/80/3 4/79/3 31/81/3
f  22/83/3 44/84/3 43/82/3
f  43/82/3 31/81/3 22/83/3
f  21/85/3 45/86/3 44/84/3
f  44/84/3 22/83/3 21/85/3
f  35/87/3 46/88/3 45/86/3
f  45/86/3 21/85/3 35/87/3
f  35/89/10 36/90/10 47/91/10
f  47/91/10 46/92/10 35/89/10
f  24/93/5 48/94/5 47/95/5
f  47/95/5 36/96/5 24/93/5
f  23/68/5 38/67/5 48/94/5
f  48/94/5 24/93/5 23/68/5
f  48/94/5 20/51/5 15/54/5
f  15/54/5 47/95/5 48/94/5
f  49/97/11 50/98/11 51/99/11
f  51/99/11 52/100/11 49/97/11
f  37/66/5 29/41/5 17/44/5
f  17/44/5 38/67/5 37/66/5
f  53/101/11 54/102/11 55/103/11
f  55/103/11 56/104/11 53/101/11
f  40/72/5 11/13/5 12/16/5
f  12/16/5 39/70/5 40/72/5
f  41/74/9 6/24/8 11/23/8
f  11/23/8 40/75/9 41/74/9
f  6/6/3 41/77/3 42/80/3
f  42/80/3 7/7/3 6/6/3
f  43/82/3 34/48/3 7/7/3
f  7/7/3 42/80/3 43/82/3
f  44/84/3 27/35/3 34/48/3
f  34/48/3 43/82/3 44/84/3
f  45/86/3 28/36/3 27/35/3
f  27/35/3 44/84/3 45/86/3
f  46/88/3 14/58/3 28/36/3
f  28/36/3 45/86/3 46/88/3
f  46/92/10 47/91/10 15/19/7
f  15/19/7 14/18/7 46/92/10
f  50/105/12 17/106/12 20/107/12
f  20/107/12 51/108/12 50/105/12
f  51/109/13 20/110/13 48/111/13
f  48/111/13 52/112/13 51/109/13
f  52/100/14 48/113/14 38/114/14
f  38/114/14 49/97/14 52/100/14
f  49/115/8 38/116/8 17/117/8
f  17/117/8 50/118/8 49/115/8
f  54/119/12 12/120/12 29/121/12
f  29/121/12 55/122/12 54/119/12
f  55/123/7 29/124/7 37/125/7
f  37/125/7 56/126/7 55/123/7
f  56/104/14 37/127/14 39/128/14
f  39/128/14 53/101/14 56/104/14
f  53/129/8 39/130/8 12/131/8
f  12/131/8 54/132/8 53/129/8

