# File produced by Open Asset Import Library (http://www.assimp.sf.net)
# (assimp v3.1.35440475)

mtllib tower_final.mtl

# 52 vertex positions
v  -0.074347 2.00002 -2.34526
v  0.966136 2.00002 -2.34526
v  0.836137 1.90306 -2.34526
v  -0.074347 1.90306 -2.34526
v  -0.966136 2.00002 -2.34526
v  -0.544464 2.00002 -1.5476
v  0.544464 2.00002 -1.5476
v  0.544464 1.95109 -1.5476
v  -0.544464 1.95109 -1.5476
v  0.966136 2.00002 2.34526
v  0.966136 -2.00002 2.34526
v  0.966136 -2.00002 -2.34526
v  -0.544464 2.00002 1.22164
v  -0.966856 1.99789 2.05466
v  -0.544464 1.95109 1.22164
v  0.544464 1.95109 1.22164
v  -0.074347 -2.00002 2.34526
v  -0.074347 2.00002 2.34526
v  -0.074347 -2.00002 2.05354
v  -0.074347 2.00002 2.05354
v  -0.074347 1.54347 2.05354
v  0.544464 2.00002 1.22164
v  -0.967216 1.55838 2.05672
v  -0.967756 1.55838 2.26735
v  -0.967576 1.99686 2.26632
v  -0.895716 1.55838 2.05354
v  -0.895716 1.99584 2.05354
v  -0.895716 1.99584 2.26576
v  -0.895716 1.55838 2.26576
v  -0.968296 1.99584 2.35604
v  -0.968296 1.55838 2.35604
v  -0.895716 1.55838 2.35604
v  -0.895716 1.99584 2.35604
v  -0.966136 -2.00002 -2.34526
v  -0.966136 -2.00002 2.05354
v  -0.074347 2.00002 1.22164
v  -0.931646 1.99635 2.26604
v  -0.966136 1.99584 2.05354
v  -0.869701 1.54596 2.05354
v  -0.836137 1.90306 -2.291
v  -0.836137 1.90306 -2.34526
v  0.836137 1.90306 -2.291
v  0.836137 -1.90306 -2.34526
v  0.836137 -1.90306 -2.291
v  -0.074347 -2.00002 -2.34526
v  -0.836137 -1.90306 -2.291
v  -0.836137 -1.90306 -2.34526
v  -0.074347 -1.90306 -2.34526
v  -0.076632 1.55838 2.26576
v  -0.076632 2.00294 2.26576
v  -0.076632 2.00294 2.35604
v  -0.076632 1.55838 2.35604

# 140 UV coordinates
vt 0.70185 0.463439 0
vt 0.80336 0.463439 0
vt 0.790677 0.472898 0
vt 0.70185 0.472898 0
vt 0.588356 0.459447 0
vt 0.399843 0.459447 0
vt 0.440982 0.381627 0
vt 0.547218 0.381627 0
vt 0.019265 0.464491 0
vt 0.024039 0.464491 0
vt 0.024039 0.570727 0
vt 0.019265 0.570727 0
vt 0.984913 0.459447 0
vt 0.594668 0.459447 0
vt 0.594668 0.001838 0
vt 0.984913 0.001838 0
vt 0.440982 0.111459 0
vt 0.399773 0.03019 0
vt 0.176312 0.464491 0
vt 0.181086 0.464491 0
vt 0.181086 0.734658 0
vt 0.176312 0.734658 0
vt 0.170177 0.734658 0
vt 0.063941 0.734658 0
vt 0.063941 0.464491 0
vt 0.170177 0.464491 0
vt 0.608711 0.463439 0
vt 0.608711 0.853684 0
vt 0.580251 0.463439 0
vt 0.580251 0.853684 0
vt 0.580251 0.809143 0
vt 0.053032 0.464491 0
vt 0.057806 0.464491 0
vt 0.057806 0.734658 0
vt 0.053032 0.734658 0
vt 0.547218 0.111459 0
vt 0.588356 0.001838 0
vt 0.574115 0.853684 0
vt 0.472606 0.853684 0
vt 0.472606 0.463439 0
vt 0.574115 0.463439 0
vt 0.392029 0.031241 0
vt 0.34915 0.03104 0
vt 0.34915 0.010491 0
vt 0.391929 0.010592 0
vt 0.213889 0.839809 0
vt 0.213889 0.882488 0
vt 0.193184 0.882488 0
vt 0.193184 0.839809 0
vt 0.01313 0.570727 0
vt 0.008356 0.570727 0
vt 0.008356 0.464491 0
vt 0.01313 0.464491 0
vt 0.044671 0.718621 0
vt 0.001992 0.718621 0
vt 0.001992 0.71154 0
vt 0.044671 0.71154 0
vt 0.392237 0.460499 0
vt 0.001992 0.460499 0
vt 0.001992 0.031351 0
vt 0.486847 0.111459 0
vt 0.486847 0.001838 0
vt 0.486847 0.030299 0
vt 0.073719 0.825588 0
vt 0.05317 0.825535 0
vt 0.05286 0.81856 0
vt 0.073564 0.81856 0
vt 0.098643 0.825571 0
vt 0.09867 0.822065 0
vt 0.119293 0.8255 0
vt 0.098698 0.81856 0
vt 0.119402 0.81856 0
vt 0.220669 0.846679 0
vt 0.22047 0.846749 0
vt 0.220669 0.839809 0
vt 0.379397 0.854528 0
vt 0.379467 0.854328 0
vt 0.46647 0.854736 0
vt 0.386337 0.854328 0
vt 0.46647 0.810194 0
vt 0.388875 0.810437 0
vt 0.386337 0.811649 0
vt 0.046897 0.627638 0
vt 0.041603 0.627638 0
vt 0.041603 0.464491 0
vt 0.046897 0.464491 0
vt 0.627529 0.472898 0
vt 0.614847 0.463439 0
vt 0.80336 0.853684 0
vt 0.790677 0.844225 0
vt 0.373227 0.835817 0
vt 0.367933 0.835817 0
vt 0.367933 0.464491 0
vt 0.373227 0.464491 0
vt 0.998008 0.921048 0
vt 0.896498 0.921048 0
vt 0.896498 0.463439 0
vt 0.998008 0.463439 0
vt 0.19865 0.464491 0
vt 0.361798 0.464491 0
vt 0.361798 0.835817 0
vt 0.19865 0.835817 0
vt 0.187222 0.464491 0
vt 0.192515 0.464491 0
vt 0.192515 0.835817 0
vt 0.187222 0.835817 0
vt 0.614847 0.853684 0
vt 0.627529 0.844225 0
vt 0.896498 0.892587 0
vt 0.809495 0.463439 0
vt 0.809495 0.892587 0
vt 0.70185 0.853684 0
vt 0.70185 0.844225 0
vt 0.030175 0.464491 0
vt 0.035468 0.464491 0
vt 0.035468 0.627638 0
vt 0.030175 0.627638 0
vt 0.379362 0.811649 0
vt 0.379467 0.464491 0
vt 0.46647 0.464491 0
vt 0.186401 0.839809 0
vt 0.186401 0.883181 0
vt 0.177593 0.883181 0
vt 0.177593 0.839809 0
vt 0.082372 0.825641 0
vt 0.082372 0.81856 0
vt 0.391829 0.001838 0
vt 0.34915 0.001838 0
vt 0.08989 0.825641 0
vt 0.08989 0.81856 0
vt 0.098698 0.73865 0
vt 0.08989 0.73865 0
vt 0.045364 0.63163 0
vt 0.001992 0.63163 0
vt 0.082372 0.73865 0
vt 0.073564 0.73865 0
vt 0.170292 0.73865 0
vt 0.170292 0.81856 0
vt 0.127613 0.81856 0
vt 0.12692 0.73865 0

# 35 vertex normals
vn 0 0 -1
vn 0 1 -0
vn 0 0 1
vn 1 0 0
vn -0.002392 0.999997 0.000367
vn -0.002514 0.999997 0.000297
vn -0.002468 0.999997 0.000682
vn -1 0 0
vn -0.999995 0.000605 -0.002983
vn -0.999991 0.000484 -0.004195
vn -0.999991 0.000485 -0.004181
vn -1 0 -0.000164
vn -1 -0.000123 -9.8e-05
vn -1 9.1e-05 -0.000246
vn -1 -3.7e-05 -0.000216
vn -1 -0.000304 0
vn -0.001901 0.999998 0.001074
vn 0 -1 0
vn 0.010975 0.999924 0.005648
vn 0.016251 0.999866 0.001772
vn 0.027865 0.999598 -0.005238
vn -0.007098 0.999975 0
vn 0.027963 0.999607 0.002109
vn 0 0.480089 -0.87722
vn 0.002247 -0.479536 0.877519
vn 0.002246 -0.479387 0.877601
vn 0 -5e-06 1
vn 0.01932 -0.000382 0.999813
vn 0 -0 0
vn 0.044475 -0.00088 0.99901
vn 4.7e-05 -1e-06 1
vn -0.999975 0.000197 -0.007062
vn 0 0.999935 0.011407
vn -0.00825 0.999966 0.000277
vn -0.008669 0.999963 0

# Mesh 'g pCube7_pCube7' with 96 faces
g g pCube7_pCube7
usemtl initialShadingGroup
f  1/1/1 2/2/1 3/3/1
f  3/3/1 4/4/1 1/1/1
f  2/5/2 5/6/2 6/7/2
f  6/7/2 7/8/2 2/5/2
f  8/9/3 7/10/3 6/11/3
f  6/11/3 9/12/3 8/9/3
f  10/13/4 11/14/4 12/15/4
f  12/15/4 2/16/4 10/13/4
f  13/17/5 6/7/6 5/6/6
f  5/6/6 14/18/7 13/17/5
f  9/19/4 6/20/4 13/21/4
f  13/21/4 15/22/4 9/19/4
f  8/23/2 9/24/2 15/25/2
f  15/25/2 16/26/2 8/23/2
f  17/27/8 18/28/8 19/29/8
f  20/30/8 21/31/8 18/28/8
f  18/28/8 21/31/8 19/29/8
f  16/32/8 22/33/8 7/34/8
f  7/34/8 8/35/8 16/32/8
f  7/8/2 22/36/2 10/37/2
f  10/37/2 2/5/2 7/8/2
f  10/38/3 18/39/3 17/40/3
f  17/40/3 11/41/3 10/38/3
f  14/42/9 23/43/9 24/44/10
f  24/44/10 25/45/11 14/42/9
f  26/46/4 27/47/4 28/48/4
f  28/48/4 29/49/4 26/46/4
f  15/50/1 13/51/1 22/52/1
f  22/52/1 16/53/1 15/50/1
f  30/54/3 31/55/3 32/56/3
f  32/56/3 33/57/3 30/54/3
f  5/58/12 34/59/13 14/42/14
f  14/42/14 34/59/13 23/43/15
f  34/59/13 35/60/16 23/43/15
f  36/61/2 18/62/2 10/37/2
f  10/37/2 22/36/2 36/61/2
f  18/62/2 36/61/2 20/63/17
f  14/18/7 20/63/17 13/17/5
f  13/17/5 20/63/17 36/61/2
f  24/64/18 23/65/18 26/66/18
f  26/66/18 29/67/18 24/64/18
f  25/68/19 37/69/20 14/70/21
f  28/71/22 27/72/23 37/69/20
f  37/69/20 27/72/23 14/70/21
f  38/73/24 14/74/21 27/75/23
f  14/76/25 38/77/26 20/78/27
f  38/77/26 27/79/3 20/78/27
f  21/80/3 20/78/27 39/81/3
f  27/79/3 26/82/28 20/78/27
f  20/78/27 26/82/28 39/81/3
f  40/83/18 41/84/18 3/85/18
f  3/85/18 42/86/18 40/83/18
f  41/87/1 5/88/1 1/1/1
f  1/1/1 4/4/1 41/87/1
f  2/2/1 12/89/1 43/90/1
f  43/90/1 3/3/1 2/2/1
f  42/91/8 3/92/8 43/93/8
f  43/93/8 44/94/8 42/91/8
f  11/95/18 17/96/18 45/97/18
f  45/97/18 12/98/18 11/95/18
f  40/99/1 42/100/1 44/101/1
f  44/101/1 46/102/1 40/99/1
f  46/103/4 47/104/4 41/105/4
f  41/105/4 40/106/4 46/103/4
f  34/107/1 5/88/1 41/87/1
f  41/87/1 47/108/1 34/107/1
f  17/96/29 19/109/18 45/97/18
f  45/97/18 19/109/18 34/110/18
f  19/109/18 35/111/18 34/110/18
f  12/89/1 45/112/1 48/113/1
f  48/113/1 43/90/1 12/89/1
f  44/114/2 43/115/2 47/116/2
f  47/116/2 46/117/2 44/114/2
f  45/112/1 34/107/1 47/108/1
f  47/108/1 48/113/1 45/112/1
f  23/118/30 35/119/31 26/82/28
f  26/82/28 35/119/31 39/81/3
f  35/119/31 19/120/3 39/81/3
f  21/80/3 39/81/3 19/120/3
f  49/121/4 50/122/4 51/123/4
f  51/123/4 52/124/4 49/121/4
f  31/125/18 24/64/18 29/67/18
f  29/67/18 32/126/18 31/125/18
f  30/127/32 25/45/11 24/44/10
f  24/44/10 31/128/32 30/127/32
f  30/129/33 33/130/34 25/68/19
f  25/68/19 33/130/34 37/69/20
f  33/130/34 28/71/22 37/69/20
f  50/131/35 28/71/22 33/130/34
f  33/130/34 51/132/35 50/131/35
f  51/133/3 33/57/3 32/56/3
f  32/56/3 52/134/3 51/133/3
f  52/135/18 32/126/18 29/67/18
f  29/67/18 49/136/18 52/135/18
f  49/137/1 29/138/1 28/139/1
f  28/139/1 50/140/1 49/137/1

